<?xml version="1.0" encoding="UTF-8" standalone="no"?>
<svg
  id="svg24"
  inkscape:version="1.2 (dc2aedaf03, 2022-05-15)"
  sodipodi:docname="owner.svg"
  version="1.1"
  viewBox="0 0 32 32"
  xml:space="preserve"
  xmlns="http://www.w3.org/2000/svg"
  xmlns:inkscape="http://www.inkscape.org/namespaces/inkscape"
  xmlns:sodipodi="http://sodipodi.sourceforge.net/DTD/sodipodi-0.dtd"
><sodipodi:namedview
     bordercolor="#000000"
     borderopacity="0.25"
     id="namedview26"
     inkscape:current-layer="svg24"
     inkscape:cx="15.135907"
     inkscape:cy="19.222185"
     inkscape:deskcolor="#d1d1d1"
     inkscape:pagecheckerboard="0"
     inkscape:pageopacity="0.0"
     inkscape:showpageshadow="2"
     inkscape:window-height="1001"
     inkscape:window-maximized="1"
     inkscape:window-width="1920"
     inkscape:window-x="-9"
     inkscape:window-y="-9"
     inkscape:zoom="35.974057"
     pagecolor="#ffffff"
     showgrid="false" />
  <defs
    id="defs17"><style
       id="style15">.cls-1 {
    fill: #606161;
  }</style></defs>
  <title
    id="title19"/>
  <g
    data-name="Layer 7"
    id="Layer_7"
    style="fill:#606161;fill-opacity:1"><path
       class="cls-1"
       d="M19.75,15.67a6,6,0,1,0-7.51,0A11,11,0,0,0,5,26v1H27V26A11,11,0,0,0,19.75,15.67ZM12,11a4,4,0,1,1,4,4A4,4,0,0,1,12,11ZM7.06,25a9,9,0,0,1,17.89,0Z"
       id="path21"
       style="fill:#606161;fill-opacity:1" /></g>
  <g
    id="g208"
    style="fill:#ffffff;fill-opacity:1"
    transform="matrix(0.02127367,0,0,0.02127367,24.83635,24.429183)">
	<g
    id="g206"
    style="opacity:1;fill:#ffffff;fill-opacity:1;fill-rule:nonzero;stroke:none;stroke-width:0;stroke-linecap:butt;stroke-linejoin:miter;stroke-miterlimit:10;stroke-dasharray:none"
    transform="matrix(5.67,0,0,5.67,-255.15,-255.15)">
	<path
    d="M 75.521092,72.316548 H 8.4870921 c -0.951,0 -1.77,-0.669 -1.959,-1.601 l -9.483,-46.474 c -0.159,-0.778 0.157,-1.576 0.806,-2.034 0.648,-0.459 1.50600005,-0.489 2.18600005,-0.079 l 25.58499985,15.421 14.591,-29.3580004 c 0.335,-0.674 1.021,-1.104 1.774,-1.11 0.709,-0.003 1.445,0.411 1.792,1.08 l 15.075,29.1000004 25.118,-15.132 c 0.681,-0.41 1.537,-0.379 2.186,0.079 0.649,0.458 0.965,1.256 0.807,2.034 l -9.483,46.474 c -0.192,0.931 -1.011,1.6 -1.961,1.6 z"
    id="path204"
    stroke-linecap="round"
    style="opacity:1;fill:#ffffff;fill-opacity:1;fill-rule:nonzero;stroke:none;stroke-width:1;stroke-linecap:butt;stroke-linejoin:miter;stroke-miterlimit:10;stroke-dasharray:none"/>
</g>
</g>
  <path
    d="m 21.085097,27.818657 c -0.06443,-0.05778 -0.10588,-0.240105 -0.543607,-2.39128 -0.260622,-1.280805 -0.473857,-2.358799 -0.473857,-2.395544 0,-0.07882 0.128557,-0.191246 0.197935,-0.173104 0.02592,0.0068 0.631351,0.364736 1.345395,0.79546 0.714045,0.430723 1.30223,0.779167 1.307079,0.774318 0.0048,-0.0048 0.340313,-0.680996 0.745476,-1.50255 0.627729,-1.272853 0.747606,-1.497897 0.810677,-1.521876 0.1582,-0.06015 0.166441,-0.04734 0.974741,1.515212 0.465811,0.900473 0.775612,1.469757 0.796815,1.464213 0.01908,-0.005 0.595259,-0.347238 1.280397,-0.760551 0.685137,-0.413314 1.267276,-0.757121 1.293641,-0.764016 0.06649,-0.01739 0.198667,0.09324 0.199073,0.166613 1.94e-4,0.03329 -0.213337,1.111285 -0.474491,2.395544 -0.436553,2.146813 -0.480395,2.340057 -0.543942,2.397561 l -0.06912,0.06255 H 24.54308 21.154847 Z"
    id="path618"
    style="fill:#606161;fill-opacity:1;stroke-width:0.0277978"/>
  <path
    d="m 14.717677,25.769833 c -0.03753,-0.03753 -0.06823,-0.0782 -0.06823,-0.09038 0,-0.01218 -0.256435,-1.278357 -0.569855,-2.813724 -0.313421,-1.535367 -0.569856,-2.825795 -0.569856,-2.867617 0,-0.105551 0.148709,-0.230537 0.245415,-0.206265 0.0384,0.0096 0.763889,0.436199 1.612188,0.947912 0.8483,0.511713 1.55582,0.925901 1.572268,0.920419 0.01645,-0.0055 0.43043,-0.815837 0.919961,-1.800786 0.977631,-1.967023 0.946233,-1.916728 1.139156,-1.824729 0.0786,0.03748 0.172895,0.2052 0.834112,1.483571 1.083802,2.095377 1.101125,2.127459 1.140557,2.112327 0.01928,-0.0074 0.709227,-0.420018 1.533224,-0.916936 0.823996,-0.496918 1.530282,-0.911545 1.569526,-0.921395 0.09715,-0.02438 0.246981,0.09933 0.246845,0.203814 -5.6e-5,0.04068 -0.256488,1.32882 -0.569855,2.862521 -0.313367,1.533702 -0.569759,2.800809 -0.569759,2.815792 0,0.01498 -0.0307,0.05795 -0.06823,0.09547 -0.06516,0.06516 -0.08385,0.06823 -0.415549,0.06823 h -0.347317 l 0.03763,-0.09034 c 0.0681,-0.1635 0.960257,-4.517007 0.960257,-4.6858 0,-0.09441 -0.08953,-0.199665 -0.169836,-0.199665 -0.05808,0 -0.213341,0.0891 -1.545315,0.886763 -0.568758,0.340607 -1.046195,0.611813 -1.060972,0.602681 -0.03519,-0.02175 -0.332404,-0.569672 -0.914909,-1.686675 -0.25988,-0.498341 -0.506706,-0.961174 -0.548503,-1.028519 -0.163992,-0.264227 -0.265282,-0.310298 -0.376155,-0.17109 -0.04884,0.06132 -1.444147,2.828169 -1.479076,2.93296 -0.0053,0.01586 -0.459316,-0.240141 -1.008954,-0.568889 -1.514804,-0.906031 -1.621149,-0.967231 -1.680734,-0.967231 -0.08558,0 -0.166441,0.09904 -0.166441,0.203861 0,0.179452 0.887584,4.507961 0.959845,4.680905 l 0.03804,0.09104 h -0.305621 c -0.287423,0 -0.309684,-0.0041 -0.373852,-0.06823 z"
    id="path736"
    style="fill:#ffffff;fill-opacity:0;stroke-width:0.0277978"/>
  <path
    d="m 14.717677,25.769833 c -0.03753,-0.03753 -0.06823,-0.0782 -0.06823,-0.09038 0,-0.01218 -0.256435,-1.278357 -0.569855,-2.813724 -0.313421,-1.535367 -0.569856,-2.825795 -0.569856,-2.867617 0,-0.105551 0.148709,-0.230537 0.245415,-0.206265 0.0384,0.0096 0.763889,0.436199 1.612188,0.947912 0.8483,0.511713 1.55582,0.925901 1.572268,0.920419 0.01645,-0.0055 0.43043,-0.815837 0.919961,-1.800786 0.977631,-1.967023 0.946233,-1.916728 1.139156,-1.824729 0.0786,0.03748 0.172895,0.2052 0.834112,1.483571 1.083802,2.095377 1.101125,2.127459 1.140557,2.112327 0.01928,-0.0074 0.709227,-0.420018 1.533224,-0.916936 0.823996,-0.496918 1.530282,-0.911545 1.569526,-0.921395 0.09715,-0.02438 0.246981,0.09933 0.246845,0.203814 -5.6e-5,0.04068 -0.256488,1.32882 -0.569855,2.862521 -0.313367,1.533702 -0.569759,2.800809 -0.569759,2.815792 0,0.01498 -0.0307,0.05795 -0.06823,0.09547 -0.06516,0.06516 -0.08385,0.06823 -0.415549,0.06823 h -0.347317 l 0.03763,-0.09034 c 0.0681,-0.1635 0.960257,-4.517007 0.960257,-4.6858 0,-0.09441 -0.08953,-0.199665 -0.169836,-0.199665 -0.05808,0 -0.213341,0.0891 -1.545315,0.886763 -0.568758,0.340607 -1.046195,0.611813 -1.060972,0.602681 -0.03519,-0.02175 -0.332404,-0.569672 -0.914909,-1.686675 -0.25988,-0.498341 -0.506706,-0.961174 -0.548503,-1.028519 -0.163992,-0.264227 -0.265282,-0.310298 -0.376155,-0.17109 -0.04884,0.06132 -1.444147,2.828169 -1.479076,2.93296 -0.0053,0.01586 -0.459316,-0.240141 -1.008954,-0.568889 -1.514804,-0.906031 -1.621149,-0.967231 -1.680734,-0.967231 -0.08558,0 -0.166441,0.09904 -0.166441,0.203861 0,0.179452 0.887584,4.507961 0.959845,4.680905 l 0.03804,0.09104 h -0.305621 c -0.287423,0 -0.309684,-0.0041 -0.373852,-0.06823 z"
    id="path738"
    style="fill:#ffffff;fill-opacity:0;stroke-width:0.0277978"/>
  <path
    d="m 14.717677,25.769833 c -0.03753,-0.03753 -0.06823,-0.0782 -0.06823,-0.09038 0,-0.01218 -0.256435,-1.278357 -0.569855,-2.813724 -0.313421,-1.535367 -0.569856,-2.825795 -0.569856,-2.867617 0,-0.105551 0.148709,-0.230537 0.245415,-0.206265 0.0384,0.0096 0.763889,0.436199 1.612188,0.947912 0.8483,0.511713 1.55582,0.925901 1.572268,0.920419 0.01645,-0.0055 0.43043,-0.815837 0.919961,-1.800786 0.977631,-1.967023 0.946233,-1.916728 1.139156,-1.824729 0.0786,0.03748 0.172895,0.2052 0.834112,1.483571 1.083802,2.095377 1.101125,2.127459 1.140557,2.112327 0.01928,-0.0074 0.709227,-0.420018 1.533224,-0.916936 0.823996,-0.496918 1.530282,-0.911545 1.569526,-0.921395 0.09715,-0.02438 0.246981,0.09933 0.246845,0.203814 -5.6e-5,0.04068 -0.256488,1.32882 -0.569855,2.862521 -0.313367,1.533702 -0.569759,2.800809 -0.569759,2.815792 0,0.01498 -0.0307,0.05795 -0.06823,0.09547 -0.06516,0.06516 -0.08385,0.06823 -0.415549,0.06823 h -0.347317 l 0.03763,-0.09034 c 0.0681,-0.1635 0.960257,-4.517007 0.960257,-4.6858 0,-0.09441 -0.08953,-0.199665 -0.169836,-0.199665 -0.05808,0 -0.213341,0.0891 -1.545315,0.886763 -0.568758,0.340607 -1.046195,0.611813 -1.060972,0.602681 -0.03519,-0.02175 -0.332404,-0.569672 -0.914909,-1.686675 -0.25988,-0.498341 -0.506706,-0.961174 -0.548503,-1.028519 -0.163992,-0.264227 -0.265282,-0.310298 -0.376155,-0.17109 -0.04884,0.06132 -1.444147,2.828169 -1.479076,2.93296 -0.0053,0.01586 -0.459316,-0.240141 -1.008954,-0.568889 -1.514804,-0.906031 -1.621149,-0.967231 -1.680734,-0.967231 -0.08558,0 -0.166441,0.09904 -0.166441,0.203861 0,0.179452 0.887584,4.507961 0.959845,4.680905 l 0.03804,0.09104 h -0.305621 c -0.287423,0 -0.309684,-0.0041 -0.373852,-0.06823 z"
    id="path740"
    style="fill:#ffffff;fill-opacity:0;stroke-width:0.0277978"/>
  <path
    d="m 14.717677,25.769833 c -0.03753,-0.03753 -0.06823,-0.0782 -0.06823,-0.09038 0,-0.01218 -0.256435,-1.278357 -0.569855,-2.813724 -0.313421,-1.535367 -0.569856,-2.825795 -0.569856,-2.867617 0,-0.105551 0.148709,-0.230537 0.245415,-0.206265 0.0384,0.0096 0.763889,0.436199 1.612188,0.947912 0.8483,0.511713 1.55582,0.925901 1.572268,0.920419 0.01645,-0.0055 0.43043,-0.815837 0.919961,-1.800786 0.977631,-1.967023 0.946233,-1.916728 1.139156,-1.824729 0.0786,0.03748 0.172895,0.2052 0.834112,1.483571 1.083802,2.095377 1.101125,2.127459 1.140557,2.112327 0.01928,-0.0074 0.709227,-0.420018 1.533224,-0.916936 0.823996,-0.496918 1.530282,-0.911545 1.569526,-0.921395 0.09715,-0.02438 0.246981,0.09933 0.246845,0.203814 -5.6e-5,0.04068 -0.256488,1.32882 -0.569855,2.862521 -0.313367,1.533702 -0.569759,2.800809 -0.569759,2.815792 0,0.01498 -0.0307,0.05795 -0.06823,0.09547 -0.06516,0.06516 -0.08385,0.06823 -0.415549,0.06823 h -0.347317 l 0.03763,-0.09034 c 0.0681,-0.1635 0.960257,-4.517007 0.960257,-4.6858 0,-0.09441 -0.08953,-0.199665 -0.169836,-0.199665 -0.05808,0 -0.213341,0.0891 -1.545315,0.886763 -0.568758,0.340607 -1.046195,0.611813 -1.060972,0.602681 -0.03519,-0.02175 -0.332404,-0.569672 -0.914909,-1.686675 -0.25988,-0.498341 -0.506706,-0.961174 -0.548503,-1.028519 -0.163992,-0.264227 -0.265282,-0.310298 -0.376155,-0.17109 -0.04884,0.06132 -1.444147,2.828169 -1.479076,2.93296 -0.0053,0.01586 -0.459316,-0.240141 -1.008954,-0.568889 -1.514804,-0.906031 -1.621149,-0.967231 -1.680734,-0.967231 -0.08558,0 -0.166441,0.09904 -0.166441,0.203861 0,0.179452 0.887584,4.507961 0.959845,4.680905 l 0.03804,0.09104 h -0.305621 c -0.287423,0 -0.309684,-0.0041 -0.373852,-0.06823 z"
    id="path742"
    style="fill:#ffffff;fill-opacity:0;stroke-width:0.0277978"/>
  <path
    d="m 14.717677,25.769833 c -0.03753,-0.03753 -0.06823,-0.0782 -0.06823,-0.09038 0,-0.01218 -0.256435,-1.278357 -0.569855,-2.813724 -0.313421,-1.535367 -0.569856,-2.825795 -0.569856,-2.867617 0,-0.105551 0.148709,-0.230537 0.245415,-0.206265 0.0384,0.0096 0.763889,0.436199 1.612188,0.947912 0.8483,0.511713 1.55582,0.925901 1.572268,0.920419 0.01645,-0.0055 0.43043,-0.815837 0.919961,-1.800786 0.977631,-1.967023 0.946233,-1.916728 1.139156,-1.824729 0.0786,0.03748 0.172895,0.2052 0.834112,1.483571 1.083802,2.095377 1.101125,2.127459 1.140557,2.112327 0.01928,-0.0074 0.709227,-0.420018 1.533224,-0.916936 0.823996,-0.496918 1.530282,-0.911545 1.569526,-0.921395 0.09715,-0.02438 0.246981,0.09933 0.246845,0.203814 -5.6e-5,0.04068 -0.256488,1.32882 -0.569855,2.862521 -0.313367,1.533702 -0.569759,2.800809 -0.569759,2.815792 0,0.01498 -0.0307,0.05795 -0.06823,0.09547 l -0.06823,0.06823 h -4.130502 -4.130501 z"
    id="path744"
    style="fill:#ffffff;fill-opacity:0;stroke-width:0.0277978"/>
  <path
    d="m 14.717677,25.769833 c -0.03753,-0.03753 -0.06823,-0.0782 -0.06823,-0.09038 0,-0.01218 -0.256435,-1.278357 -0.569855,-2.813724 -0.313421,-1.535367 -0.569856,-2.825795 -0.569856,-2.867617 0,-0.105551 0.148709,-0.230537 0.245415,-0.206265 0.0384,0.0096 0.763889,0.436199 1.612188,0.947912 0.8483,0.511713 1.55582,0.925901 1.572268,0.920419 0.01645,-0.0055 0.43043,-0.815837 0.919961,-1.800786 0.977631,-1.967023 0.946233,-1.916728 1.139156,-1.824729 0.0786,0.03748 0.172895,0.2052 0.834112,1.483571 1.083802,2.095377 1.101125,2.127459 1.140557,2.112327 0.01928,-0.0074 0.709227,-0.420018 1.533224,-0.916936 0.823996,-0.496918 1.530282,-0.911545 1.569526,-0.921395 0.09715,-0.02438 0.246981,0.09933 0.246845,0.203814 -5.6e-5,0.04068 -0.256488,1.32882 -0.569855,2.862521 -0.313367,1.533702 -0.569759,2.800809 -0.569759,2.815792 0,0.01498 -0.0307,0.05795 -0.06823,0.09547 l -0.06823,0.06823 h -4.130502 -4.130501 z"
    id="path746"
    style="fill:#ffffff;fill-opacity:0;stroke-width:0.0277978"/>
  <path
    d="m 14.717677,25.769833 c -0.03753,-0.03753 -0.06823,-0.0782 -0.06823,-0.09038 0,-0.01218 -0.256435,-1.278357 -0.569855,-2.813724 -0.313421,-1.535367 -0.569856,-2.825795 -0.569856,-2.867617 0,-0.105551 0.148709,-0.230537 0.245415,-0.206265 0.0384,0.0096 0.763889,0.436199 1.612188,0.947912 0.8483,0.511713 1.55582,0.925901 1.572268,0.920419 0.01645,-0.0055 0.43043,-0.815837 0.919961,-1.800786 0.977631,-1.967023 0.946233,-1.916728 1.139156,-1.824729 0.0786,0.03748 0.172895,0.2052 0.834112,1.483571 1.083802,2.095377 1.101125,2.127459 1.140557,2.112327 0.01928,-0.0074 0.709227,-0.420018 1.533224,-0.916936 0.823996,-0.496918 1.530282,-0.911545 1.569526,-0.921395 0.09715,-0.02438 0.246981,0.09933 0.246845,0.203814 -5.6e-5,0.04068 -0.256488,1.32882 -0.569855,2.862521 -0.313367,1.533702 -0.569759,2.800809 -0.569759,2.815792 0,0.01498 -0.0307,0.05795 -0.06823,0.09547 l -0.06823,0.06823 h -4.130502 -4.130501 z"
    id="path748"
    style="fill:#ffffff;fill-opacity:0;stroke-width:0.0277978"/>
  <path
    d="m 14.717677,25.769833 c -0.03753,-0.03753 -0.06823,-0.0782 -0.06823,-0.09038 0,-0.01218 -0.256435,-1.278357 -0.569855,-2.813724 -0.313421,-1.535367 -0.569856,-2.825795 -0.569856,-2.867617 0,-0.105551 0.148709,-0.230537 0.245415,-0.206265 0.0384,0.0096 0.763889,0.436199 1.612188,0.947912 0.8483,0.511713 1.55582,0.925901 1.572268,0.920419 0.01645,-0.0055 0.43043,-0.815837 0.919961,-1.800786 0.977631,-1.967023 0.946233,-1.916728 1.139156,-1.824729 0.0786,0.03748 0.172895,0.2052 0.834112,1.483571 1.083802,2.095377 1.101125,2.127459 1.140557,2.112327 0.01928,-0.0074 0.709227,-0.420018 1.533224,-0.916936 0.823996,-0.496918 1.530282,-0.911545 1.569526,-0.921395 0.09715,-0.02438 0.246981,0.09933 0.246845,0.203814 -5.6e-5,0.04068 -0.256488,1.32882 -0.569855,2.862521 -0.313367,1.533702 -0.569759,2.800809 -0.569759,2.815792 0,0.01498 -0.0307,0.05795 -0.06823,0.09547 l -0.06823,0.06823 h -4.130502 -4.130501 z"
    id="path750"
    style="fill:#ffffff;fill-opacity:0;stroke-width:0.0277978"/>
  <path
    d="m 24.285569,31.457843 c -0.02537,-0.02804 -0.06419,-0.112471 -0.08627,-0.187635 -0.04808,-0.163673 -0.309463,-1.410423 -0.644955,-3.07628 L 23.309415,26.977774 H 14.156511 5.0036057 l 6.891e-4,-0.50731 c 0.0014,-1.029637 0.06692,-1.78783 0.2245445,-2.598361 0.5125276,-2.635496 2.0383183,-5.049034 4.2210931,-6.677043 0.7577196,-0.56514 1.7310496,-1.104081 2.5650716,-1.420302 l 0.242632,-0.092 -0.344087,-0.328907 c -0.584015,-0.558249 -0.941125,-1.040836 -1.282354,-1.732929 -0.44556,-0.903702 -0.6566396,-1.886829 -0.61473,-2.863175 0.125086,-2.9140499 2.294003,-5.2958663 5.188188,-5.697457 0.415614,-0.05767 1.168536,-0.057823 1.585973,-3.227e-4 1.965246,0.2707045 3.670814,1.4911788 4.554254,3.2589417 0.481531,0.9635441 0.704583,2.091003 0.617225,3.119885 -0.105217,1.239238 -0.555826,2.366388 -1.327994,3.321838 -0.207476,0.256723 -0.536419,0.593533 -0.796343,0.81539 -0.05894,0.05031 -0.102721,0.09569 -0.09729,0.100845 0.0054,0.0052 0.12245,0.05278 0.260049,0.10583 2.21178,0.852712 4.189912,2.524213 5.408427,4.570066 0.989297,1.661001 1.502685,3.418411 1.572958,5.384492 l 0.01875,0.524647 0.280433,-0.556521 c 0.154238,-0.306086 0.304263,-0.582831 0.333388,-0.614989 0.141269,-0.155981 0.171035,-0.111599 1.032083,1.538924 0.580713,1.113156 0.740325,1.394053 0.786494,1.38413 0.01725,-0.0037 0.578205,-0.333438 1.246566,-0.732735 0.668361,-0.399297 1.243545,-0.738908 1.278187,-0.754692 0.09067,-0.04132 0.204253,0.03739 0.204253,0.141538 0,0.04272 -0.136843,0.758574 -0.304095,1.590784 -0.557154,2.772271 -0.632427,3.108578 -0.716586,3.201572 -0.04177,0.04616 -0.233977,0.0489 -3.426969,0.0489 -3.245181,0 -3.384592,-0.0021 -3.428847,-0.05097 z m 2.082153,-3.927108 c 0.14622,-0.292134 0.260812,-0.536197 0.254647,-0.542362 -0.0062,-0.0062 -0.539117,-0.0079 -1.184338,-0.004 l -1.173128,0.0073 0.895618,0.535108 c 0.49259,0.294309 0.905906,0.535108 0.918481,0.535108 0.01258,0 0.142498,-0.239019 0.28872,-0.531154 z m -3.282886,-1.682141 c 0.06818,-0.02616 0.115343,-0.139049 0.166992,-0.399699 0.02575,-0.129955 0.05889,-0.283191 0.07365,-0.340523 l 0.02683,-0.104242 h 0.808221 0.808222 l -0.01816,-0.13204 C 24.813183,23.872749 24.50583,22.838706 24.113536,22.055946 l -0.119226,-0.237898 0.177383,-0.860116 c 0.09756,-0.473063 0.177789,-0.900073 0.178286,-0.948909 0.0014,-0.135469 -0.105496,-0.243758 -0.239377,-0.242547 -0.08627,7.81e-4 -0.197359,0.05628 -0.569102,0.284296 -0.25405,0.155829 -0.474131,0.283326 -0.489067,0.283326 -0.01494,0 -0.109183,-0.09695 -0.209437,-0.215433 -0.264679,-0.312823 -0.879469,-0.906408 -1.213457,-1.171605 -1.338494,-1.062808 -2.884475,-1.703943 -4.60338,-1.90907 -0.467123,-0.05575 -1.501981,-0.06355 -1.931947,-0.01458 -1.189911,0.135535 -2.167235,0.426576 -3.204859,0.954385 -2.276681,1.158083 -3.9602017,3.257587 -4.6088322,5.747634 -0.091623,0.351735 -0.2198762,1.04449 -0.2198762,1.187654 v 0.09105 H 10.771122 14.4816 l 0.01427,0.06255 c 0.0078,0.0344 0.04463,0.20611 0.08173,0.381579 0.05137,0.242924 0.08198,0.330792 0.12833,0.368321 0.05766,0.04669 0.27877,0.04929 4.197388,0.04929 2.275086,0 4.156769,-0.0078 4.181519,-0.01727 z m -6.40615,-10.898058 c 0.145243,-0.02327 0.400605,-0.08619 0.56747,-0.139822 1.364782,-0.43864 2.381928,-1.580494 2.689462,-3.019205 0.08256,-0.386251 0.08864,-1.101744 0.01279,-1.506319 C 19.713994,9.0348113 18.92381,7.9777668 17.80198,7.4138675 17.512922,7.2685699 17.169937,7.1491743 16.814353,7.0700679 16.432573,6.9851336 15.635605,6.9777412 15.250601,7.0555631 14.10043,7.2880502 13.132205,7.967846 12.548336,8.952838 c -0.243625,0.4109982 -0.415184,0.8722211 -0.503615,1.353935 -0.07077,0.385524 -0.06263,1.085411 0.01705,1.465599 0.174049,0.830432 0.504241,1.444873 1.100093,2.047116 0.941312,0.951407 2.170568,1.34675 3.516818,1.131048 z"
    id="path752"
    style="fill:#ffffff;fill-opacity:0;stroke-width:0.0277978"/>
  <path
    d="m 24.285569,31.457843 c -0.02537,-0.02804 -0.06419,-0.112471 -0.08627,-0.187635 -0.04808,-0.163673 -0.309463,-1.410423 -0.644955,-3.07628 L 23.309415,26.977774 H 14.156511 5.0036057 l 6.891e-4,-0.50731 c 0.0014,-1.029637 0.06692,-1.78783 0.2245445,-2.598361 0.5125276,-2.635496 2.0383183,-5.049034 4.2210931,-6.677043 0.7577196,-0.56514 1.7310496,-1.104081 2.5650716,-1.420302 l 0.242632,-0.092 -0.344087,-0.328907 c -0.584015,-0.558249 -0.941125,-1.040836 -1.282354,-1.732929 -0.44556,-0.903702 -0.6566396,-1.886829 -0.61473,-2.863175 0.125086,-2.9140499 2.294003,-5.2958663 5.188188,-5.697457 0.415614,-0.05767 1.168536,-0.057823 1.585973,-3.227e-4 1.965246,0.2707045 3.670814,1.4911788 4.554254,3.2589417 0.481531,0.9635441 0.704583,2.091003 0.617225,3.119885 -0.105217,1.239238 -0.555826,2.366388 -1.327994,3.321838 -0.207476,0.256723 -0.536419,0.593533 -0.796343,0.81539 -0.05894,0.05031 -0.102721,0.09569 -0.09729,0.100845 0.0054,0.0052 0.12245,0.05278 0.260049,0.10583 2.21178,0.852712 4.189912,2.524213 5.408427,4.570066 0.989297,1.661001 1.502685,3.418411 1.572958,5.384492 l 0.01875,0.524647 0.280433,-0.556521 c 0.154238,-0.306086 0.304263,-0.582831 0.333388,-0.614989 0.141269,-0.155981 0.171035,-0.111599 1.032083,1.538924 0.580713,1.113156 0.740325,1.394053 0.786494,1.38413 0.01725,-0.0037 0.578205,-0.333438 1.246566,-0.732735 0.668361,-0.399297 1.243545,-0.738908 1.278187,-0.754692 0.09067,-0.04132 0.204253,0.03739 0.204253,0.141538 0,0.04272 -0.136843,0.758574 -0.304095,1.590784 -0.557154,2.772271 -0.632427,3.108578 -0.716586,3.201572 -0.04177,0.04616 -0.233977,0.0489 -3.426969,0.0489 -3.245181,0 -3.384592,-0.0021 -3.428847,-0.05097 z m 2.082153,-3.927108 c 0.14622,-0.292134 0.260812,-0.536197 0.254647,-0.542362 -0.0062,-0.0062 -0.539117,-0.0079 -1.184338,-0.004 l -1.173128,0.0073 0.895618,0.535108 c 0.49259,0.294309 0.905906,0.535108 0.918481,0.535108 0.01258,0 0.142498,-0.239019 0.28872,-0.531154 z m -3.282886,-1.682141 c 0.06818,-0.02616 0.115343,-0.139049 0.166992,-0.399699 0.02575,-0.129955 0.05889,-0.283191 0.07365,-0.340523 l 0.02683,-0.104242 h 0.808221 0.808222 l -0.01816,-0.13204 C 24.813183,23.872749 24.50583,22.838706 24.113536,22.055946 l -0.119226,-0.237898 0.177383,-0.860116 c 0.09756,-0.473063 0.177789,-0.900073 0.178286,-0.948909 0.0014,-0.135469 -0.105496,-0.243758 -0.239377,-0.242547 -0.08627,7.81e-4 -0.197359,0.05628 -0.569102,0.284296 -0.25405,0.155829 -0.474131,0.283326 -0.489067,0.283326 -0.01494,0 -0.109183,-0.09695 -0.209437,-0.215433 -0.264679,-0.312823 -0.879469,-0.906408 -1.213457,-1.171605 -1.338494,-1.062808 -2.884475,-1.703943 -4.60338,-1.90907 -0.467123,-0.05575 -1.501981,-0.06355 -1.931947,-0.01458 -1.189911,0.135535 -2.167235,0.426576 -3.204859,0.954385 -2.276681,1.158083 -3.9602017,3.257587 -4.6088322,5.747634 -0.091623,0.351735 -0.2198762,1.04449 -0.2198762,1.187654 v 0.09105 H 10.771122 14.4816 l 0.01427,0.06255 c 0.0078,0.0344 0.04463,0.20611 0.08173,0.381579 0.05137,0.242924 0.08198,0.330792 0.12833,0.368321 0.05766,0.04669 0.27877,0.04929 4.197388,0.04929 2.275086,0 4.156769,-0.0078 4.181519,-0.01727 z m -6.40615,-10.898058 c 0.145243,-0.02327 0.400605,-0.08619 0.56747,-0.139822 1.364782,-0.43864 2.381928,-1.580494 2.689462,-3.019205 0.08256,-0.386251 0.08864,-1.101744 0.01279,-1.506319 C 19.713994,9.0348113 18.92381,7.9777668 17.80198,7.4138675 17.512922,7.2685699 17.169937,7.1491743 16.814353,7.0700679 16.432573,6.9851336 15.635605,6.9777412 15.250601,7.0555631 14.10043,7.2880502 13.132205,7.967846 12.548336,8.952838 c -0.243625,0.4109982 -0.415184,0.8722211 -0.503615,1.353935 -0.07077,0.385524 -0.06263,1.085411 0.01705,1.465599 0.174049,0.830432 0.504241,1.444873 1.100093,2.047116 0.941312,0.951407 2.170568,1.34675 3.516818,1.131048 z"
    id="path1226"
    style="fill:#ffffff;fill-opacity:0;stroke-width:0.0277978"/>
  <path
    d="m 14.717677,25.769833 c -0.03753,-0.03753 -0.06823,-0.0782 -0.06823,-0.09038 0,-0.01218 -0.256435,-1.278357 -0.569855,-2.813724 -0.313421,-1.535367 -0.569856,-2.825795 -0.569856,-2.867617 0,-0.105551 0.148709,-0.230537 0.245415,-0.206265 0.0384,0.0096 0.763889,0.436199 1.612188,0.947912 0.8483,0.511713 1.55582,0.925901 1.572268,0.920419 0.01645,-0.0055 0.43043,-0.815837 0.919961,-1.800786 0.977631,-1.967023 0.946233,-1.916728 1.139156,-1.824729 0.0786,0.03748 0.172895,0.2052 0.834112,1.483571 1.083802,2.095377 1.101125,2.127459 1.140557,2.112327 0.01928,-0.0074 0.709227,-0.420018 1.533224,-0.916936 0.823996,-0.496918 1.530282,-0.911545 1.569526,-0.921395 0.09715,-0.02438 0.246981,0.09933 0.246845,0.203814 -5.6e-5,0.04068 -0.256488,1.32882 -0.569855,2.862521 -0.313367,1.533702 -0.569759,2.800809 -0.569759,2.815792 0,0.01498 -0.0307,0.05795 -0.06823,0.09547 l -0.06823,0.06823 h -4.130502 -4.130501 z"
    id="path1228"
    style="fill:#ffffff;fill-opacity:0;stroke-width:0.0277978"/>
  <path
    d="m 14.717677,25.769833 c -0.03753,-0.03753 -0.06823,-0.0782 -0.06823,-0.09038 0,-0.01218 -0.256435,-1.278357 -0.569855,-2.813724 -0.313421,-1.535367 -0.569856,-2.825795 -0.569856,-2.867617 0,-0.105551 0.148709,-0.230537 0.245415,-0.206265 0.0384,0.0096 0.763889,0.436199 1.612188,0.947912 0.8483,0.511713 1.55582,0.925901 1.572268,0.920419 0.01645,-0.0055 0.43043,-0.815837 0.919961,-1.800786 0.977631,-1.967023 0.946233,-1.916728 1.139156,-1.824729 0.0786,0.03748 0.172895,0.2052 0.834112,1.483571 1.083802,2.095377 1.101125,2.127459 1.140557,2.112327 0.01928,-0.0074 0.709227,-0.420018 1.533224,-0.916936 0.823996,-0.496918 1.530282,-0.911545 1.569526,-0.921395 0.09715,-0.02438 0.246981,0.09933 0.246845,0.203814 -5.6e-5,0.04068 -0.256488,1.32882 -0.569855,2.862521 -0.313367,1.533702 -0.569759,2.800809 -0.569759,2.815792 0,0.01498 -0.0307,0.05795 -0.06823,0.09547 l -0.06823,0.06823 h -4.130502 -4.130501 z"
    id="path1230"
    style="fill:#ffffff;fill-opacity:0;stroke-width:0.0277978"/>
  <path
    d="m 14.717677,25.769833 c -0.03753,-0.03753 -0.06823,-0.0782 -0.06823,-0.09038 0,-0.01218 -0.256435,-1.278357 -0.569855,-2.813724 -0.313421,-1.535367 -0.569856,-2.825795 -0.569856,-2.867617 0,-0.105551 0.148709,-0.230537 0.245415,-0.206265 0.0384,0.0096 0.763889,0.436199 1.612188,0.947912 0.8483,0.511713 1.55582,0.925901 1.572268,0.920419 0.01645,-0.0055 0.43043,-0.815837 0.919961,-1.800786 0.977631,-1.967023 0.946233,-1.916728 1.139156,-1.824729 0.0786,0.03748 0.172895,0.2052 0.834112,1.483571 1.083802,2.095377 1.101125,2.127459 1.140557,2.112327 0.01928,-0.0074 0.709227,-0.420018 1.533224,-0.916936 0.823996,-0.496918 1.530282,-0.911545 1.569526,-0.921395 0.09715,-0.02438 0.246981,0.09933 0.246845,0.203814 -5.6e-5,0.04068 -0.256488,1.32882 -0.569855,2.862521 -0.313367,1.533702 -0.569759,2.800809 -0.569759,2.815792 0,0.01498 -0.0307,0.05795 -0.06823,0.09547 l -0.06823,0.06823 h -4.130502 -4.130501 z"
    id="path1232"
    style="fill:#ffffff;fill-opacity:0;stroke-width:0.0277978"/></svg>
