<?xml version="1.0" encoding="UTF-8" standalone="no"?>
<!-- Created with Inkscape (http://www.inkscape.org/) -->

<svg
   width="144.42189mm"
   height="114.0031mm"
   viewBox="0 0 144.42189 114.0031"
   version="1.1"
   id="svg5"
   inkscape:version="1.1.1 (3bf5ae0d25, 2021-09-20)"
   sodipodi:docname="Icon.svg"
   xmlns:inkscape="http://www.inkscape.org/namespaces/inkscape"
   xmlns:sodipodi="http://sodipodi.sourceforge.net/DTD/sodipodi-0.dtd"
   xmlns="http://www.w3.org/2000/svg"
   xmlns:svg="http://www.w3.org/2000/svg">
  <sodipodi:namedview
     id="namedview7"
     pagecolor="#505050"
     bordercolor="#ffffff"
     borderopacity="1"
     inkscape:pageshadow="0"
     inkscape:pageopacity="0"
     inkscape:pagecheckerboard="1"
     inkscape:document-units="mm"
     showgrid="false"
     fit-margin-top="0"
     fit-margin-left="0"
     fit-margin-right="0"
     fit-margin-bottom="0"
     inkscape:zoom="1.0998546"
     inkscape:cx="313.22322"
     inkscape:cy="205.93631"
     inkscape:window-width="1920"
     inkscape:window-height="1027"
     inkscape:window-x="-8"
     inkscape:window-y="-8"
     inkscape:window-maximized="1"
     inkscape:current-layer="layer1" />
  <defs
     id="defs2" />
  <g
     inkscape:label="Icon"
     inkscape:groupmode="layer"
     id="layer1"
     transform="translate(-3.6661812,-3.361485)">
    <path
       style="fill:#000000;stroke-width:0.282222"
       d="m 13.635981,116.86813 c -2.492798,-0.84202 -4.2377053,-1.94685 -5.8851982,-3.72634 -2.4075393,-2.60043 -3.5999365,-5.32775 -4.0083214,-9.16809 -0.1563611,-1.47037 -0.099779,-1.7951 0.4297302,-2.46629 l 0.6098009,-0.77296 11.4825495,-0.0737 11.48255,-0.0737 0.141111,-43.180012 c 0.130435,-39.913239 0.177906,-43.286755 0.627475,-44.591109 0.527136,-1.529407 2.07497,-4.039264 3.276715,-5.31329 1.26866,-1.344968 3.95957,-2.977706 5.890444,-3.574093 1.806993,-0.558123 2.562341,-0.567061 47.919807,-0.567061 45.006366,0 46.125816,0.01296 47.877486,0.55432 4.63997,1.433989 8.17241,5.270151 9.38152,10.188155 0.64378,2.618576 0.6027,4.632477 -0.10901,5.344191 -0.54561,0.545609 -0.94074,0.564444 -11.84146,0.564444 h -11.27701 l -0.0824,8.437479 c -0.0765,7.835631 -0.12078,8.47982 -0.62006,9.031111 -0.70829,0.782063 -2.22986,0.789471 -3.00471,0.01462 -0.56783,-0.567831 -0.57733,-0.800543 -0.49266,-12.065 0.0841,-11.182774 0.10324,-11.527864 0.72658,-13.071862 0.35213,-0.872226 1.14533,-2.291215 1.76266,-3.153309 0.61734,-0.862083 1.12243,-1.644082 1.12243,-1.737763 0,-0.09368 -17.81175,-0.134752 -39.581669,-0.09127 -37.162038,0.07423 -39.659301,0.109739 -40.851665,0.580876 -2.772996,1.095689 -5.226281,3.63597 -6.163659,6.38223 -0.242815,0.711281 -0.327481,12.003701 -0.327481,43.673878 V 100.72815 H 63.116784 94.11203 l 0.567744,0.635 c 0.374099,0.41841 0.67853,1.38199 0.892556,2.82508 0.821805,5.5411 4.57539,8.98905 9.78587,8.98905 3.98409,0 7.41194,-2.17021 9.05787,-5.73465 l 0.81991,-1.77559 0.14111,-14.393345 c 0.0776,-7.916333 0.24869,-14.559923 0.38019,-14.763523 0.78775,-1.21972 3.05282,-0.8536 3.55045,0.57389 0.49752,1.4272 0.39727,26.679198 -0.11553,29.099438 -1.09473,5.16674 -4.89019,9.24325 -10.00467,10.74551 -1.37695,0.40444 -6.24338,0.4485 -47.836664,0.43301 -42.687789,-0.0159 -46.413971,-0.0545 -47.714885,-0.49389 z m 81.421107,-3.61104 c 0,-0.0941 -0.380035,-0.65088 -0.844525,-1.23735 -1.08303,-1.36744 -2.158966,-3.69139 -2.581833,-5.57659 l -0.332351,-1.48167 H 49.684918 8.0714578 l 0.1848996,0.7367 c 0.9514848,3.79102 4.2697146,6.87986 7.9723786,7.42126 1.845978,0.26991 78.828352,0.40434 78.828352,0.13765 z M 138.50427,14.183332 c -1.93129,-5.613409 -8.05674,-8.219394 -13.40773,-5.70413 -2.44527,1.149411 -4.70231,3.920135 -5.31442,6.523939 l -0.18245,0.776111 h 9.72684 9.72684 z M 80.119795,94.057865 c -0.321711,-0.40899 -0.584929,-0.913 -0.584929,-1.12001 0,-0.20702 0.946986,-3.71415 2.104416,-7.793613 4.719283,-16.633574 7.522415,-23.006041 12.530163,-28.485318 7.021175,-7.682286 19.526195,-13.221391 34.907835,-15.462447 5.56372,-0.810618 16.52427,-1.260458 17.7932,-0.730266 1.00385,0.419435 1.43775,1.352535 1.10964,2.386298 -0.10213,0.32181 -1.66885,1.886726 -3.48158,3.47759 -1.81273,1.590867 -6.21739,5.820012 -9.78811,9.398102 -7.86784,7.884063 -12.74102,11.714183 -20.47808,16.094943 -4.11401,2.329374 -6.47283,3.226928 -14.382236,5.472578 -3.955554,1.12307 -8.462318,2.53418 -10.015032,3.13579 l -2.823116,1.09384 -1.659055,5.9417 c -0.912478,3.267943 -1.905542,6.255063 -2.206808,6.638063 -0.771638,0.98097 -2.235482,0.95812 -3.026308,-0.0473 z m 19.170879,-20.97566 c 5.833906,-1.656896 7.493956,-2.253818 10.624886,-3.820504 3.89432,-1.948671 9.17943,-5.333235 13.31122,-8.52444 2.91373,-2.250437 15.88188,-15.171987 14.94891,-14.895206 -8.31529,2.466888 -25.52399,12.522234 -37.61527,21.979263 -2.757889,2.157044 -8.325554,6.907366 -8.325554,7.103346 0,0.172388 -0.476896,0.296918 7.055808,-1.842459 z m -4.946962,-5.662676 c 8.422068,-7.01796 18.769398,-13.934239 30.346708,-20.284103 1.47461,-0.808787 2.42711,-1.40688 2.11667,-1.3291 -0.31045,0.07778 -1.35448,0.279922 -2.32008,0.449205 -4.70151,0.824235 -11.66346,3.099688 -16.05016,5.245856 -8.36132,4.090729 -13.390887,9.198268 -16.911725,17.173901 -0.602367,1.364525 -0.645448,1.598512 -0.233824,1.27 0.277526,-0.221488 1.65111,-1.358079 3.052411,-2.525759 z M 41.717091,93.390365 c -0.76055,-0.76055 -0.745561,-2.28853 0.02934,-2.99015 0.559291,-0.5064 1.243649,-0.54267 11.782777,-0.62443 12.022189,-0.0933 12.979636,-0.007 13.5414,1.22637 0.45674,1.00244 0.415893,1.35458 -0.256222,2.20904 l -0.584928,0.74362 h -11.97396 c -11.597665,0 -11.991698,-0.0177 -12.538404,-0.56445 z M 42.563757,72.30921 c -1.455315,-0.547187 -1.909411,-2.409439 -0.846666,-3.472183 0.551468,-0.551468 0.940739,-0.564445 16.933332,-0.564445 15.992593,0 16.381865,0.01298 16.933333,0.564445 0.760622,0.760623 0.745566,2.28856 -0.02947,2.990147 -0.567854,0.51404 -1.295392,0.539902 -16.580555,0.589418 -8.792655,0.02848 -16.177143,-0.01984 -16.409977,-0.107382 z M 41.896262,50.189878 c -0.539335,-0.42424 -0.743616,-0.84503 -0.743616,-1.531739 0,-0.686709 0.204281,-1.107499 0.743616,-1.531738 0.738878,-0.5812 0.894521,-0.584928 24.425048,-0.584928 h 23.681435 l 0.692726,0.692728 c 0.381,0.381 0.692728,1.021771 0.692728,1.423938 0,0.402167 -0.311728,1.042938 -0.692728,1.423938 l -0.692726,0.692729 H 66.32131 c -23.530527,0 -23.68617,-0.0037 -24.425048,-0.584928 z M 41.717091,28.479251 c -0.760713,-0.760713 -0.745575,-2.288599 0.02963,-2.990147 0.530347,-0.479958 1.062762,-0.53763 4.963324,-0.53763 h 4.369251 l 0.701746,0.815828 c 0.809636,0.941259 0.724348,1.975409 -0.229475,2.782505 -0.500713,0.423689 -1.200994,0.493889 -4.926852,0.493889 -3.966885,0 -4.392083,-0.0489 -4.907624,-0.564445 z m 16.982526,-0.08874 c -0.757382,-0.806203 -0.78644,-1.893103 -0.07413,-2.772773 l 0.539507,-0.666264 h 23.41975 c 22.634346,0 23.439676,0.01803 24.013826,0.53763 0.7752,0.701548 0.79034,2.229434 0.0296,2.990147 -0.55536,0.555357 -0.94074,0.564445 -23.939697,0.564445 H 59.313259 Z"
       id="path854" />
  </g>
</svg>
