<?xml version="1.0" encoding="UTF-8" standalone="no"?>
<!-- Created with Inkscape (http://www.inkscape.org/) -->

<svg
  height="297mm"
  id="svg5"
  version="1.1"
  viewBox="0 0 210 297"
  width="210mm"
  xmlns="http://www.w3.org/2000/svg"
>
  <defs
    id="defs2"/>
  <g
    id="layer1">
    <g
      id="g111"
      transform="translate(-15.649485,-32.319588)">
      <path
        d="m 54.36626,156.19556 c -5.180335,-1.26398 -9.133369,-5.28662 -10.515606,-10.70076 -0.48964,-1.9179 -0.559771,-4.17928 -0.15317,-4.93902 0.554165,-1.03547 1.736259,-1.14002 12.889182,-1.14002 H 67.410107 V 97.268683 c 0,-40.507946 0.02089,-42.228746 0.537097,-44.247105 1.204644,-4.710112 4.575793,-8.41249 9.310722,-10.225538 l 1.58218,-0.605832 45.437774,-0.08133 c 32.23224,-0.05769 45.97092,0.0093 47.27222,0.230629 6.379,1.084787 11.38464,6.944605 11.64062,13.627006 0.0622,1.622543 -0.0132,1.954086 -0.57098,2.513081 l -0.64258,0.643946 -11.28131,0.07984 -11.2813,0.07984 -0.009,8.245718 c -0.007,6.03662 -0.10108,8.365687 -0.35278,8.69351 -0.92683,1.207164 -2.50674,1.298536 -3.49803,0.202303 -0.47973,-0.53051 -0.51444,-1.318951 -0.51143,-11.616283 0.003,-10.777709 0.0189,-11.090704 0.64549,-12.833244 0.67258,-1.870447 1.69972,-3.699137 2.6845,-4.779399 l 0.58238,-0.638834 -39.91669,0.07439 -39.916682,0.07439 -1.552222,0.732177 c -1.965246,0.926998 -3.712537,2.676728 -4.718386,4.724968 l -0.784947,1.598411 -0.07412,42.827219 -0.07412,42.827224 h 30.606297 c 18.69539,0 30.88136,0.10457 31.31307,0.26871 0.94307,0.35856 1.32656,1.15293 1.59274,3.29925 0.45409,3.66148 2.59187,6.7878 5.63946,8.24723 1.32152,0.63285 1.92974,0.74336 4.09222,0.74351 2.16575,1.6e-4 2.77788,-0.11131 4.15441,-0.75648 1.90401,-0.8924 3.7522,-2.69979 4.73559,-4.63104 l 0.70556,-1.38563 0.14111,-14.5826 0.14111,-14.58261 0.6842,-0.72795 c 0.8848,-0.94138 2.07734,-0.95539 2.99752,-0.0352 l 0.69273,0.69273 v 14.06464 c 0,15.35906 -0.0285,15.68304 -1.66642,18.92768 -0.94884,1.87965 -3.38503,4.4798 -5.18644,5.53549 -0.67957,0.39826 -1.98743,1.01044 -2.90636,1.36042 l -1.67078,0.63631 -46.00222,0.0496 c -38.521073,0.0415 -46.264673,-0.0145 -47.616067,-0.34421 z m 80.02952,-4.43258 c -0.11908,-0.19403 -0.59471,-0.91422 -1.05695,-1.60042 -0.95074,-1.41139 -2.1465,-4.49677 -2.1465,-5.53853 v -0.69272 H 89.578049 47.963772 l 0.397185,1.31975 c 0.855503,2.84262 3.052535,5.16494 5.960932,6.30087 1.328978,0.51906 2.724259,0.53788 40.833206,0.55063 31.495805,0.0105 39.413515,-0.058 39.240685,-0.33958 z m 44.20988,-97.285519 c 0,-0.149399 -0.26083,-0.968757 -0.57962,-1.820794 -0.76622,-2.047916 -2.7103,-4.171016 -4.72542,-5.160579 -1.40182,-0.688384 -1.93703,-0.790141 -4.14941,-0.788899 -3.05302,0.0017 -4.47906,0.551858 -6.61898,2.5535 -1.40539,1.314582 -2.83546,3.789173 -2.83546,4.906486 0,0.576166 0.0935,0.581921 9.45444,0.581921 5.86916,0 9.45445,-0.103009 9.45445,-0.271635 z m -58.57394,78.883349 c -0.38255,-0.38255 -0.69273,-1.02343 -0.69273,-1.43129 0,-0.96636 3.58171,-13.63787 5.18313,-18.33709 3.40004,-9.97709 5.49798,-13.870869 9.97675,-18.516885 6.99197,-7.253054 17.84904,-12.225442 31.97123,-14.642374 4.35495,-0.745323 12.03406,-1.405249 16.40138,-1.409499 3.17755,-0.0031 3.64022,0.05941 4.30389,0.581462 0.88942,0.699618 1.00947,2.152551 0.24973,3.022561 -0.27164,0.311065 -2.01789,1.901065 -3.88056,3.533331 -1.86266,1.632269 -5.73616,5.34834 -8.60777,8.257935 -7.46646,7.565219 -11.70325,10.970089 -19.40228,15.592519 -4.89812,2.94079 -7.26703,3.88088 -16.43994,6.52411 -4.26861,1.23003 -8.76126,2.65851 -9.98366,3.1744 l -2.22255,0.93799 -1.75568,6.18523 c -1.85092,6.52072 -2.21147,7.22033 -3.7211,7.22033 -0.37791,0 -0.99884,-0.31173 -1.37984,-0.69273 z m 19.59575,-21.60126 c 3.78561,-1.09785 7.78611,-2.41396 8.89,-2.92466 3.82874,-1.77134 10.59609,-6.13275 15.1766,-9.78098 1.80586,-1.438311 14.40459,-13.861442 14.2322,-14.033835 -0.18163,-0.181627 -3.46937,1.149559 -7.50506,3.038752 -10.72678,5.021435 -24.7181,14.119753 -34.24607,22.269653 -3.99129,3.41401 -4.30052,3.69963 -3.85393,3.55977 0.23284,-0.0729 3.52066,-1.03083 7.30626,-2.1287 z m -3.35514,-7.17855 c 8.33112,-6.67883 18.46153,-13.386264 26.95222,-17.84531 1.86266,-0.978213 3.21145,-1.780876 2.99731,-1.783695 -1.01474,-0.01335 -7.34209,1.586808 -10.72591,2.712536 -7.74193,2.575583 -12.86482,5.547405 -17.40891,10.09902 -2.02293,2.026282 -3.27173,3.575159 -4.33329,5.374539 -1.28328,2.17522 -2.84365,5.30962 -2.84365,5.71222 0,0.0696 0.47625,-0.2771 1.05834,-0.77045 0.58208,-0.49334 2.51883,-2.06783 4.30389,-3.49886 z m -54.186669,28.26067 c -0.388055,-0.19628 -0.875783,-0.7119 -1.083837,-1.14581 -0.480819,-1.00278 -0.03728,-2.22445 0.97508,-2.68571 0.483721,-0.2204 4.272006,-0.31884 12.270421,-0.31884 h 11.570655 l 0.69273,0.69273 c 1.19824,1.19824 0.81911,2.96235 -0.75454,3.51092 -1.3475,0.46974 -22.731643,0.4216 -23.670509,-0.0533 z m -0.191578,-21.7014 c -0.940246,-0.45457 -1.356721,-1.70039 -0.892259,-2.66905 0.727823,-1.51793 0.550844,-1.5027 17.452725,-1.5027 16.901881,0 16.724901,-0.0152 17.452731,1.5027 0.48081,1.00278 0.0373,2.22445 -0.97509,2.68571 -0.9443,0.43025 -32.146245,0.41452 -33.038107,-0.0166 z M 81.496037,89.216567 c -0.472,-0.382202 -0.652153,-0.821041 -0.652153,-1.588584 0,-0.767542 0.180153,-1.206381 0.652153,-1.588583 0.625718,-0.506674 1.621403,-0.528083 24.560583,-0.528083 h 23.90843 l 0.61364,0.653189 c 0.81513,0.867664 0.79763,2.180014 -0.0395,2.966505 L 129.886,89.74465 h -23.86888 c -22.900538,0 -23.895335,-0.02142 -24.521033,-0.528083 z m 0.589624,-21.275084 c -0.865183,-0.451005 -1.509239,-1.714167 -1.265529,-2.482031 0.09941,-0.313199 0.448764,-0.819153 0.776351,-1.124348 0.538584,-0.501769 1.01057,-0.554897 4.929668,-0.554897 4.225293,0 4.35144,0.01739 5.026781,0.692728 0.919932,0.919929 0.906123,2.112614 -0.0347,2.997522 -0.689646,0.648654 -0.935191,0.68821 -4.727222,0.761506 -2.868766,0.05545 -4.199302,-0.0267 -4.705347,-0.29048 z m 17.315583,0.158967 c -1.628422,-0.318527 -2.135082,-2.542692 -0.83413,-3.66172 l 0.765578,-0.658523 h 23.214378 c 22.69114,0 23.2278,0.0125 23.80999,0.554897 0.83194,0.775067 1.01953,1.563567 0.58673,2.46619 -0.73421,1.531228 -0.0226,1.488818 -24.35924,1.451875 -12.41778,-0.01885 -22.850267,-0.08757 -23.183306,-0.152719 z"
        id="path127"
        style="fill:#d0d0d0;fill-opacity:1;stroke-width:0.282222"/>
      <path
        d="m 54.992329,156.31833 c -3.823831,-0.62278 -7.738661,-3.54205 -9.664355,-7.20665 -1.659013,-3.15711 -2.416314,-7.44938 -1.522002,-8.62649 0.747382,-0.98373 1.769262,-1.06943 12.750803,-1.06943 h 10.841034 l 0.08323,-42.827222 c 0.07536,-38.774579 0.126862,-42.950052 0.544305,-44.12528 1.747044,-4.91845 5.109639,-8.291258 9.718633,-9.748147 1.590683,-0.502811 3.602625,-0.524903 47.803903,-0.524903 44.12286,0 46.20875,0.0228 47.63741,0.520692 5.83958,2.035118 9.74754,7.258516 10.0035,13.370708 0.0631,1.507025 -0.0175,1.846973 -0.56901,2.398889 l -0.64253,0.643043 -11.28135,0.08271 -11.28135,0.08271 v 8.156552 c 0,8.146437 -8.5e-4,8.157503 -0.66089,8.92488 -0.86485,1.005444 -2.29864,1.055923 -3.06626,0.107952 -0.50867,-0.628178 -0.5306,-1.225643 -0.44991,-12.253148 l 0.0848,-11.592768 0.8461,-1.83396 c 0.46536,-1.008678 1.25926,-2.375224 1.76423,-3.036768 l 0.91812,-1.202808 -39.86422,0.07343 -39.864223,0.07343 -1.552222,0.732177 c -1.979453,0.933699 -3.837457,2.791704 -4.771155,4.771156 l -0.732178,1.552223 -0.07324,42.827219 -0.07324,42.827223 h 30.440568 c 21.49726,0 30.70344,0.0916 31.33531,0.3119 1.13887,0.39702 1.37676,0.86446 1.73286,3.40489 0.52771,3.76485 2.52896,6.64195 5.64107,8.10992 1.31286,0.61927 1.94484,0.73218 4.09816,0.73218 2.30867,0 2.72181,-0.0866 4.43315,-0.92908 3.01044,-1.48203 4.81398,-4.01365 5.3118,-7.45612 0.14116,-0.97614 0.25921,-7.63934 0.26233,-14.8071 l 0.006,-13.03229 0.74362,-0.58493 c 0.98644,-0.77593 1.95041,-0.73878 2.79699,0.1078 l 0.69273,0.69273 v 13.89424 c 0,11.8323 -0.0676,14.16915 -0.45544,15.74672 -1.18096,4.80351 -4.45246,8.39045 -9.36544,10.26848 l -1.60912,0.6151 -45.72,0.0405 c -25.8113,0.0228 -46.395907,-0.0696 -47.272217,-0.21234 z m 79.586661,-4.34303 c 0,-0.0772 -0.4571,-0.77672 -1.01579,-1.55436 -1.03501,-1.44066 -2.35416,-4.70636 -2.36492,-5.85463 l -0.006,-0.635 H 89.545531 47.898738 l 0.180203,0.635 c 0.493461,1.73885 1.96118,4.22908 3.044686,5.1658 1.159285,1.00224 1.556137,1.22209 3.58648,1.98682 0.799701,0.30121 8.497429,0.37441 40.428331,0.38444 21.692302,0.007 39.440552,-0.0508 39.440552,-0.12807 z m 43.87772,-98.143426 c -0.57062,-2.70073 -3.22078,-5.66529 -6.00304,-6.715225 -3.22613,-1.217436 -7.55088,-0.311419 -9.9961,2.094139 -1.23509,1.215059 -2.31603,2.999738 -2.71341,4.479975 l -0.28412,1.058333 h 9.59523 9.59523 z m -57.84772,79.902596 c -0.82089,-0.45892 -1.27,-1.11039 -1.27,-1.84225 0,-0.35327 0.83552,-3.59925 1.8567,-7.21328 5.25512,-18.59822 8.21573,-24.886852 14.48732,-30.772576 7.06063,-6.626219 18.3434,-11.474252 31.67142,-13.608719 3.87639,-0.620798 11.94991,-1.269658 15.85016,-1.273855 3.16049,-0.0034 3.364,0.03147 4.02167,0.689145 0.75785,0.757845 0.91482,2.025678 0.33995,2.745658 -0.19403,0.243004 -1.43228,1.36987 -2.75167,2.504143 -1.31938,1.134277 -5.70088,5.316254 -9.73666,9.293284 -7.64358,7.53231 -9.84874,9.40489 -15.61154,13.25698 -3.51964,2.35267 -9.35573,5.55202 -11.63306,6.37727 -0.69292,0.25109 -4.73989,1.46229 -8.99327,2.69156 -4.25339,1.22927 -8.68718,2.64704 -9.85287,3.1506 l -2.11943,0.91555 -1.73833,6.14833 c -0.95608,3.38159 -1.91979,6.32598 -2.14158,6.5431 -0.5827,0.57043 -1.7256,0.76023 -2.37881,0.39506 z m 18.20333,-21.69688 c 7.76097,-2.1977 9.09003,-2.70929 13.31219,-5.12414 7.80799,-4.46575 12.49439,-8.179608 20.03272,-15.875449 3.20554,-3.27251 5.79122,-5.988998 5.74597,-6.036643 -0.14311,-0.15067 -4.96149,1.810202 -8.18754,3.331972 -6.3136,2.978204 -16.03579,8.846876 -23.56556,14.22504 -5.4381,3.88417 -14.96996,11.69507 -13.82889,11.33211 0.23284,-0.0741 3.15384,-0.90787 6.49111,-1.85289 z m -3.49743,-6.64639 c 8.45336,-6.887027 18.779,-13.780141 28.15289,-18.794101 2.89413,-1.548028 3.04271,-1.666195 1.87343,-1.489933 -2.3064,0.347675 -7.71324,1.762043 -10.72444,2.805391 -9.19769,3.186895 -16.13487,8.042384 -20.20459,14.141643 -1.31061,1.96421 -3.50208,6.18335 -3.50208,6.74241 0,0.099 0.36291,-0.1149 0.80646,-0.47539 0.44355,-0.3605 2.0628,-1.67901 3.59833,-2.93002 z m -52.846978,27.62036 c -1.660189,-0.32474 -2.155952,-2.52474 -0.826615,-3.66819 l 0.778597,-0.66972 11.852461,0.0794 11.852465,0.0794 0.53931,0.66626 c 1.00555,1.24227 0.54738,2.83273 -0.98373,3.41486 -0.74016,0.28141 -21.81986,0.37041 -23.212488,0.098 z M 81.63103,110.81487 c -0.972518,-0.83652 -1.038414,-2.20483 -0.149011,-3.09423 l 0.619323,-0.61932 h 16.353207 16.353211 l 0.61932,0.61932 c 0.8894,0.8894 0.82351,2.25771 -0.14901,3.09423 l -0.76833,0.66089 H 98.454549 82.39936 Z m 0.237027,-21.259109 c -0.197293,-0.07938 -0.556548,-0.526897 -0.798345,-0.99448 -0.362339,-0.700684 -0.379298,-0.995804 -0.09647,-1.678621 0.188739,-0.455659 0.571395,-0.950618 0.850347,-1.099907 0.313193,-0.167615 9.616857,-0.271436 24.324321,-0.271436 h 23.81714 l 0.61364,0.653189 c 0.81513,0.867664 0.79763,2.180014 -0.0395,2.966505 L 129.886,89.74465 106.05641,89.72238 C 92.950087,89.710134 82.06535,89.635156 81.868057,89.555776 Z m 0.640938,-21.451264 c -1.928605,-0.518318 -2.289076,-3.204923 -0.537117,-4.003166 1.0841,-0.493951 8.129069,-0.423094 9.124709,0.09177 1.343107,0.694549 1.526865,1.938449 0.468255,3.169702 -0.680345,0.791298 -0.683536,0.791885 -4.586111,0.84262 -2.147911,0.02791 -4.159292,-0.0175 -4.469736,-0.100926 z m 16.622792,-0.208291 c -1.476609,-0.648611 -1.744856,-2.550346 -0.498066,-3.531071 0.738533,-0.580929 0.901443,-0.584928 23.832039,-0.584928 h 23.08842 l 0.76833,0.660891 c 0.97247,0.836478 1.0384,2.204796 0.14911,3.094233 l -0.61922,0.61932 -22.92282,0.06295 c -18.83004,0.05171 -23.079033,-0.0057 -23.797793,-0.321395 z"
        id="path125"
        style="fill:#b9b9b9;fill-opacity:1;stroke-width:0.282222"/>
      <path
        d="m 55.165234,156.3233 c -2.341318,-0.34638 -5.447526,-1.96298 -7.296785,-3.79755 -2.520908,-2.50089 -4.012327,-5.79422 -4.339396,-9.58221 -0.162675,-1.88405 -0.135403,-2.00824 0.588766,-2.68111 l 0.759343,-0.70556 11.258651,-0.0827 11.258652,-0.0827 0.07861,-42.815091 0.07861,-42.81509 0.599966,-1.565798 c 1.068559,-2.788738 1.844048,-4.035383 3.606778,-5.798112 1.762562,-1.762562 3.00868,-2.537773 5.798111,-3.607006 l 1.565797,-0.600195 44.732223,-0.08297 c 30.2045,-0.05602 45.46548,0.01365 46.99,0.21454 6.8586,0.903761 12.15946,6.818282 12.31105,13.736284 0.0715,3.262969 0.30022,3.206587 -13.00755,3.206587 h -10.7335 v 8.168707 c 0,8.07368 -0.007,8.176928 -0.635,8.875499 -0.91714,1.020826 -2.11667,1.088573 -3.03389,0.171348 -0.54506,-0.545056 -0.56445,-0.94074 -0.56445,-11.519887 0,-9.248955 0.0708,-11.194215 0.45447,-12.488332 0.56754,-1.914299 1.35283,-3.481402 2.43131,-4.851886 l 0.83511,-1.061218 -39.88988,0.07344 -39.889893,0.07344 -1.59398,0.747314 c -2.029883,0.951679 -3.762583,2.68438 -4.714262,4.714261 l -0.747313,1.593981 -0.07324,42.827219 -0.07324,42.827225 h 30.491748 c 32.46417,0 32.14909,-0.0127 32.55282,1.31479 0.0869,0.28581 0.29612,1.40865 0.46489,2.49521 0.58414,3.7608 2.45044,6.47791 5.52473,8.04333 1.20421,0.61318 1.75512,0.70556 4.20784,0.70556 2.42314,0 3.02177,-0.0978 4.23334,-0.69159 2.05709,-1.00819 4.15276,-3.22261 4.96261,-5.24383 l 0.67498,-1.68458 0.0904,-14.31523 0.0904,-14.31523 0.72717,-0.57199 c 0.39995,-0.3146 0.89457,-0.572 1.09917,-0.572 0.74625,0 1.75505,0.64343 2.06076,1.3144 0.21581,0.47365 0.31335,4.9257 0.31335,14.30292 0,11.24689 -0.0745,13.90779 -0.42839,15.29728 -1.27668,5.0129 -4.8017,8.79897 -9.75226,10.47447 -1.45906,0.49382 -3.68283,0.52029 -46.96935,0.5591 -24.990773,0.0224 -46.185465,-0.0699 -47.099312,-0.20507 z m 78.972226,-5.12476 c -1.06386,-1.26082 -2.60112,-4.54581 -2.82456,-6.03581 l -0.18466,-1.23142 H 89.527127 47.926021 l 0.179085,0.77611 c 0.351323,1.52256 1.999369,4.14262 3.298198,5.24349 2.72777,2.31201 -0.668087,2.14527 43.901332,2.15563 l 39.606754,0.009 z m 44.4682,-96.968811 c 0,-1.016139 -1.72459,-3.948181 -3.05329,-5.191026 -1.95495,-1.828628 -4.07623,-2.562265 -6.9656,-2.409026 -4.25161,0.225484 -7.54339,2.796918 -8.76142,6.844137 l -0.38381,1.275282 h 9.58206 c 9.11669,0 9.58206,-0.02522 9.58206,-0.519367 z m -57.99667,79.482931 c -0.78586,-0.45069 -1.25045,-1.10906 -1.26102,-1.78697 -0.005,-0.3166 0.75981,-3.3011 1.69944,-6.63223 5.33087,-18.89866 8.02047,-24.77416 14.08735,-30.774186 8.55795,-8.463649 22.26165,-13.602233 40.2189,-15.081207 6.23793,-0.51376 10.48458,-0.534162 11.43175,-0.05492 0.82137,0.415583 1.28807,1.535083 1.03812,2.490207 -0.0971,0.371049 -1.03488,1.373133 -2.08395,2.226855 -1.04907,0.853722 -5.52812,5.109754 -9.95344,9.457847 -8.25832,8.114204 -11.08555,10.496264 -17.23253,14.519154 -6.20561,4.06127 -9.74976,5.61513 -18.6546,8.17873 -7.65325,2.20328 -11.8177,3.61799 -12.71933,4.32088 -0.25306,0.19728 -0.96873,2.22346 -1.62008,4.58672 -2.18294,7.92023 -2.21193,7.99907 -3.11372,8.4654 -0.97033,0.50178 -1.0978,0.50759 -1.83689,0.0837 z m 18.76778,-21.78377 c 5.2897,-1.50031 7.33118,-2.22586 10.08518,-3.58426 3.73822,-1.84387 10.34951,-6.11673 14.18593,-9.168314 2.08754,-1.660488 14.46626,-13.95487 14.26408,-14.166897 -0.18239,-0.191277 -4.51158,1.560956 -8.16178,3.303467 -8.31057,3.967248 -18.01751,9.986599 -27.20087,16.867474 -4.75153,3.56022 -11.13055,9.02005 -10.2281,8.75429 0.23284,-0.0686 3.40784,-0.97116 7.05556,-2.00576 z m -5.08,-5.71267 c 7.99993,-6.665678 19.83779,-14.626432 29.18547,-19.626735 2.9014,-1.552033 3.03661,-1.660429 1.85897,-1.490396 -4.45164,0.642755 -11.62863,2.880701 -16.28793,5.078944 -8.75985,4.132871 -13.92681,9.14199 -17.44923,16.916197 -0.73122,1.61384 -0.87385,2.1241 -0.50408,1.80331 0.28363,-0.24606 1.72219,-1.45266 3.1968,-2.68132 z m -52.919961,26.14034 c -0.704593,-0.77857 -0.655249,-2.14429 0.10495,-2.90481 0.613955,-0.61422 0.712693,-0.62 11.970927,-0.701 6.243525,-0.0449 11.640844,-0.01 11.994044,0.0777 1.68749,0.4189 2.30162,2.35697 1.10352,3.48253 -0.64951,0.61018 -0.72085,0.61364 -12.656259,0.61364 -11.6703,0 -12.017324,-0.0158 -12.517182,-0.56809 z m 0.254221,-21.54169 c -0.916585,-0.78841 -1.031424,-2.14556 -0.254221,-3.00436 0.503999,-0.55691 0.83741,-0.56808 16.949103,-0.56808 15.551568,0 16.469548,0.028 17.077738,0.52046 0.93022,0.75325 0.8709,2.19484 -0.12558,3.05198 l -0.76833,0.66089 H 98.454549 82.39936 Z m 0.112948,-21.454974 c -1.157735,-0.879587 -1.036337,-3.19377 0.192272,-3.665231 0.262788,-0.10084 11.141185,-0.183348 24.17421,-0.183348 h 23.69641 l 0.69273,0.692728 c 0.381,0.381 0.69273,1.021772 0.69273,1.423938 0,0.402167 -0.31173,1.042938 -0.69273,1.423938 l -0.69273,0.692729 -23.79005,-0.009 C 86.946355,89.728479 82.130995,89.65393 81.743978,89.359896 Z M 81.505446,67.493074 c -0.930221,-0.753245 -0.870901,-2.194836 0.125584,-3.051976 0.725996,-0.624479 0.984425,-0.660891 4.690423,-0.660891 4.209321,0 5.107894,0.210501 5.610865,1.314399 0.440619,0.96706 0.395678,1.327029 -0.271585,2.175318 l -0.584928,0.743616 h -4.463807 c -3.917572,0 -4.542457,-0.06369 -5.106552,-0.520466 z m 16.949103,-0.04398 c -0.840361,-0.840362 -0.752596,-2.351033 0.179172,-3.083961 0.738533,-0.580929 0.901443,-0.584928 23.832039,-0.584928 h 23.08842 l 0.76833,0.660891 c 0.99649,0.85714 1.05581,2.298731 0.12559,3.051976 -0.61309,0.496452 -1.72216,0.520466 -24.03593,0.520466 -23.016881,0 -23.402255,-0.0091 -23.957621,-0.564444 z"
        id="path123"
        style="fill:#a3a3a3;fill-opacity:1;stroke-width:0.282222"/>
      <path
        d="m 55.697885,156.33596 c -6.706673,-0.91582 -11.518396,-6.21561 -12.159083,-13.39242 -0.164127,-1.83851 -0.12925,-2.01939 0.502758,-2.60731 0.677116,-0.62989 0.712796,-0.63197 12.094389,-0.70556 l 11.415269,-0.0738 0.141111,-43.321109 0.141111,-43.321109 0.652613,-1.615656 c 1.197694,-2.9651 3.934627,-6.073713 6.519452,-7.404809 0.529748,-0.272801 1.672748,-0.767797 2.54,-1.09999 l 1.576823,-0.603989 44.450002,-0.07823 c 28.16148,-0.04956 45.37213,0.0247 46.96644,0.202656 5.98658,0.668222 10.59883,4.719799 12.13895,10.663324 0.63962,2.468386 0.58934,4.729731 -0.12095,5.440028 -0.54561,0.545609 -0.94074,0.564444 -11.84146,0.564444 h -11.27702 l -0.0824,8.437479 c -0.0765,7.835632 -0.12077,8.479821 -0.62006,9.031111 -0.70165,0.774739 -2.22968,0.789655 -2.99014,0.02919 -0.5451,-0.545095 -0.56445,-0.94074 -0.56445,-11.541381 0,-12.548457 0.0789,-13.095253 2.38476,-16.533932 l 1.23911,-1.84784 -39.98249,0.07435 -39.982484,0.07435 -1.385624,0.705556 c -1.931252,0.983388 -3.738642,2.831584 -4.631043,4.735593 l -0.756666,1.614407 -0.07323,42.968331 -0.07323,42.968326 h 31.036127 c 35.83941,0 31.887,-0.39402 32.39546,3.22951 0.54464,3.88135 2.53338,6.8567 5.58446,8.35493 2.05277,1.00801 5.57052,1.11811 7.89278,0.24704 2.27677,-0.85401 4.59252,-3.15167 5.52674,-5.48356 0.67634,-1.68821 0.67782,-1.71687 0.822,-15.94347 0.0794,-7.83873 0.25204,-14.41881 0.38354,-14.62241 0.7792,-1.20649 2.98459,-0.90423 3.5613,0.4881 0.22976,0.55469 0.29462,4.82058 0.22812,15.00412 -0.0897,13.73708 -0.11381,14.28442 -0.69736,15.82977 -1.67222,4.42841 -4.81173,7.47304 -9.39892,9.11487 -1.51725,0.54304 -2.5698,0.55663 -46.70778,0.60293 -24.835555,0.026 -45.917554,-0.0567 -46.848887,-0.18385 z m 78.439265,-5.13742 c -1.02138,-1.21001 -2.28212,-3.90459 -2.69951,-5.76968 l -0.33513,-1.49755 H 89.514263 47.926021 l 0.182451,0.77611 c 0.356187,1.51515 1.921667,4.0774 3.153918,5.16207 0.687544,0.6052 1.903299,1.35158 2.701677,1.65861 1.420808,0.54641 2.294622,0.55856 41.199458,0.57295 l 39.747865,0.0147 z M 178.6029,54.255207 c -0.005,-0.951866 -1.45183,-3.609818 -2.62398,-4.821536 -0.65079,-0.672762 -1.81826,-1.561664 -2.59437,-1.975338 -1.25792,-0.670482 -1.7175,-0.752135 -4.23334,-0.752135 -2.54165,0 -2.97048,0.07809 -4.31352,0.785532 -2.57181,1.354677 -4.39524,3.644359 -5.27384,6.622366 l -0.18734,0.635 h 9.61457 c 8.96964,0 9.61439,-0.03313 9.61182,-0.493889 z m -57.89493,79.458883 c -0.4316,-0.14609 -0.89758,-0.61496 -1.10225,-1.10907 -0.32094,-0.77482 -0.17261,-1.50266 1.56445,-7.67651 3.06769,-10.90312 5.89057,-18.81825 8.15647,-22.87007 6.44829,-11.530606 20.00944,-19.063233 39.45919,-21.917851 4.15212,-0.609403 16.07421,-1.316553 17.23534,-1.022302 1.09151,0.276606 1.89947,1.170245 1.88884,2.089141 -0.0113,0.978577 -0.20113,1.207429 -2.95435,3.561935 -1.24178,1.061943 -5.62328,5.253329 -9.73667,9.314191 -7.81559,7.715776 -10.95844,10.327326 -17.38681,14.447526 -5.93167,3.80185 -9.12365,5.16683 -18.13887,7.75672 -7.74784,2.22579 -11.95808,3.66663 -12.63875,4.32525 -0.18027,0.17444 -1.05473,2.92065 -1.94325,6.10271 -0.88851,3.18205 -1.72259,5.99445 -1.8535,6.24976 -0.34145,0.66593 -1.65487,1.05152 -2.54984,0.74857 z m 18.6688,-21.78426 c 7.61721,-2.15938 11.63099,-3.9499 17.21555,-7.67972 6.1099,-4.08069 8.77221,-6.329675 15.40919,-13.01691 3.58555,-3.612701 6.4707,-6.56855 6.41145,-6.56855 -0.39768,0 -5.325,2.046763 -8.22242,3.415524 -9.67254,4.569352 -22.09839,12.502486 -31.57392,20.157976 -4.0431,3.26651 -6.9366,5.8846 -6.29541,5.69621 0.23284,-0.0684 3.40784,-0.97044 7.05556,-2.00453 z m -5.92667,-4.97155 c 8.70209,-7.433335 20.90338,-15.555795 32.59667,-21.699755 1.27879,-0.671909 1.34802,-0.679732 -3.63654,0.410952 -4.80919,1.052308 -9.6414,2.70891 -13.86124,4.75197 -8.81515,4.267911 -13.62359,9.077457 -17.21974,17.223683 -0.8335,1.8881 -0.93029,1.91944 2.12085,-0.68685 z M 81.521217,132.3602 c -0.760552,-0.76055 -0.745561,-2.28853 0.02934,-2.99014 0.559818,-0.50688 1.24191,-0.54231 11.923888,-0.61931 6.231554,-0.0449 11.612345,-0.0116 11.957295,0.074 1.6525,0.4101 2.28719,2.38837 1.11851,3.48629 -0.64934,0.61002 -0.72346,0.61364 -12.558893,0.61364 -11.529403,0 -11.923538,-0.0178 -12.470143,-0.56445 z m 0.846667,-21.08115 c -1.455316,-0.54718 -1.909411,-2.40943 -0.846667,-3.47218 0.551468,-0.55147 0.94074,-0.56444 16.933332,-0.56444 15.992591,0 16.381861,0.013 16.933331,0.56444 0.76062,0.76062 0.74557,2.28856 -0.0295,2.99015 -0.56785,0.51404 -1.29539,0.5399 -16.58055,0.58942 -8.792655,0.0285 -16.177143,-0.0198 -16.409976,-0.10739 z M 81.743978,89.359896 c -1.111363,-0.844358 -1.113189,-2.618415 -0.0036,-3.461224 0.391625,-0.297456 5.119914,-0.371153 24.276402,-0.37838 l 23.79005,-0.009 0.69273,0.692728 c 0.381,0.381 0.69273,1.021772 0.69273,1.423938 0,0.402167 -0.31173,1.042938 -0.69273,1.423938 l -0.69273,0.692729 -23.79005,-0.009 C 86.946355,89.728479 82.130995,89.65393 81.743978,89.359896 Z m -0.222761,-21.9108 c -0.760208,-0.760208 -0.74553,-2.288388 0.02872,-2.990148 0.51186,-0.463936 1.134903,-0.550296 4.545456,-0.630038 4.320698,-0.101021 5.311228,0.111924 5.831434,1.253651 0.446376,0.979692 0.402931,1.336833 -0.266096,2.187363 l -0.584928,0.743616 h -4.495072 c -4.118776,0 -4.542324,-0.04725 -5.059516,-0.564444 z m 16.933332,0 c -0.713198,-0.713198 -0.724391,-1.997722 -0.02492,-2.861513 l 0.539507,-0.666265 h 23.419754 c 22.63434,0 23.43967,0.01803 24.01382,0.53763 0.7752,0.701548 0.79034,2.229435 0.0296,2.990148 -0.55538,0.555376 -0.94074,0.564444 -23.98889,0.564444 -23.048147,0 -23.43351,-0.0091 -23.988887,-0.564444 z"
        id="path121"
        style="fill:#8c8c8c;fill-opacity:1;stroke-width:0.282222"/>
      <path
        d="m 53.298996,155.80691 c -2.376913,-0.78375 -4.046994,-1.86222 -5.776357,-3.73014 -2.374456,-2.5647 -3.56945,-5.30967 -3.976051,-9.13323 -0.156362,-1.47038 -0.09978,-1.79511 0.42973,-2.4663 l 0.609801,-0.77296 11.482549,-0.0737 11.48255,-0.0737 0.141111,-43.179998 c 0.130435,-39.913239 0.177906,-43.286755 0.627475,-44.591109 0.527136,-1.529406 2.07497,-4.039264 3.276715,-5.31329 1.268661,-1.344967 3.95957,-2.977706 5.890444,-3.574092 1.806993,-0.558123 2.562341,-0.567062 47.919807,-0.567062 45.00637,0 46.12581,0.01296 47.87749,0.55432 4.63997,1.43399 8.1724,5.270152 9.38151,10.188155 0.64379,2.618576 0.60271,4.632477 -0.109,5.344191 -0.54561,0.545609 -0.94074,0.564444 -11.84146,0.564444 h -11.27702 l -0.0824,8.437479 c -0.0765,7.835632 -0.12077,8.479821 -0.62006,9.031111 -0.70828,0.782063 -2.22986,0.789471 -3.0047,0.01462 -0.56783,-0.567831 -0.57733,-0.800543 -0.49266,-12.064999 0.084,-11.180011 0.10338,-11.528209 0.72606,-13.070482 0.35185,-0.871466 1.14505,-2.305855 1.76266,-3.187532 0.61762,-0.881665 1.12294,-1.664688 1.12294,-1.740039 0,-0.07535 -17.81175,-0.100575 -39.58166,-0.05605 -37.128747,0.07593 -39.660371,0.111986 -40.851667,0.581771 -2.771163,1.092802 -5.226075,3.634374 -6.16366,6.38124 -0.242784,0.711288 -0.327451,12.003708 -0.327451,43.673885 v 42.714547 h 30.995248 30.99525 l 0.56808,0.635 c 0.36545,0.4085 0.67445,1.35793 0.8663,2.66174 0.83471,5.67267 4.56513,9.1524 9.81178,9.1524 3.9841,0 7.41195,-2.17022 9.05788,-5.73466 l 0.8199,-1.77559 0.14111,-14.39333 c 0.0776,-7.91634 0.2487,-14.55992 0.3802,-14.76352 0.78774,-1.21973 3.05282,-0.85361 3.55044,0.57388 0.49753,1.42721 0.39728,26.67919 -0.11552,29.09943 -0.55795,2.63332 -1.67956,4.76709 -3.5839,6.81808 -1.70032,1.83127 -3.42456,2.92139 -6.0489,3.82429 -1.57302,0.5412 -2.63192,0.55306 -48.06038,0.53821 -44.077956,-0.0144 -46.531259,-0.0413 -48.004154,-0.527 z m 81.562214,-3.57998 c 0,-0.0941 -0.38003,-0.65089 -0.84452,-1.23736 -1.08303,-1.36743 -2.15897,-3.69138 -2.58183,-5.57659 l -0.33235,-1.48167 H 89.489044 47.875584 l 0.1849,0.7367 c 0.951484,3.79102 4.269714,6.87986 7.972378,7.42126 1.845978,0.26991 78.828348,0.40435 78.828348,0.13766 z m 43.38505,-99.173008 c -1.08829,-2.910074 -3.14553,-5.018049 -5.91325,-6.059089 -1.02575,-0.38582 -1.87304,-0.471322 -3.66889,-0.370236 -2.61577,0.147236 -4.23731,0.771398 -6.06224,2.333465 -1.10834,0.948697 -2.6704,3.546373 -3.01564,5.014923 l -0.18245,0.776111 h 9.73821 9.73822 z M 119.92392,133.0277 c -0.32171,-0.40899 -0.58493,-0.91548 -0.58493,-1.12554 0,-0.60081 3.56353,-13.13175 4.84573,-17.03973 1.72736,-5.26476 3.76893,-10.29158 5.2584,-12.94738 4.65295,-8.296449 12.92204,-14.422401 24.75032,-18.33566 7.89176,-2.610908 15.03416,-3.827444 25.06422,-4.269091 5.39635,-0.237611 6.59295,-0.218533 7.39829,0.117961 1.02275,0.427332 1.45884,1.352654 1.1283,2.394094 -0.10214,0.321809 -1.66769,1.886726 -3.479,3.47759 -1.81131,1.590867 -6.21596,5.821414 -9.78811,9.401219 -3.57215,3.579806 -7.63782,7.382347 -9.03482,8.450087 -5.62027,4.29564 -12.69926,8.65333 -16.70597,10.28387 -1.07518,0.43755 -5.18569,1.71204 -9.13445,2.83219 -3.94877,1.12016 -8.45237,2.53827 -10.00802,3.15135 l -2.82844,1.1147 -1.65373,5.92261 c -0.90955,3.25744 -1.90021,6.23598 -2.20148,6.61898 -0.77164,0.98098 -2.23548,0.95812 -3.02631,-0.0472 z m 19.17088,-20.97565 c 5.8339,-1.6569 7.49396,-2.25382 10.62489,-3.8205 3.89065,-1.94684 9.17159,-5.32816 13.31121,-8.52302 2.8757,-2.219387 15.85996,-15.166217 14.9354,-14.892338 -6.75855,2.002048 -20.70529,9.73567 -31.66515,17.558668 -5.21305,3.72101 -14.84618,11.57514 -14.2619,11.62809 0.0777,0.007 3.25275,-0.87086 7.05555,-1.9509 z m -4.84408,-5.75225 c 8.23731,-6.875939 19.04186,-14.093351 30.24383,-20.202796 1.47461,-0.80424 2.42711,-1.398614 2.11666,-1.320834 -0.31044,0.07778 -1.35448,0.279922 -2.32007,0.449205 -4.7123,0.826126 -11.6636,3.099751 -16.07359,5.257331 -8.3518,4.086101 -13.60598,9.47057 -17.01357,17.435444 -0.67964,1.58857 -0.99718,1.75724 3.04674,-1.61835 z m -52.729503,26.0604 c -0.760549,-0.76055 -0.745561,-2.28853 0.02934,-2.99014 0.559291,-0.50641 1.243649,-0.54267 11.782777,-0.62444 12.022186,-0.0933 12.979636,-0.007 13.541396,1.22638 0.45674,1.00243 0.41589,1.35458 -0.25622,2.20903 l -0.58493,0.74362 H 94.059621 c -11.597664,0 -11.991697,-0.0177 -12.538404,-0.56445 z m 0.846667,-21.08115 c -1.455316,-0.54718 -1.909411,-2.40943 -0.846667,-3.47218 0.551468,-0.55147 0.94074,-0.56444 16.933332,-0.56444 15.992591,0 16.381861,0.013 16.933331,0.56444 0.76062,0.76062 0.74557,2.28856 -0.0295,2.99015 -0.56785,0.51404 -1.29539,0.5399 -16.58055,0.58942 -8.792655,0.0285 -16.177143,-0.0198 -16.409976,-0.10739 z M 81.700389,89.159722 c -0.539336,-0.424239 -0.743616,-0.84503 -0.743616,-1.531739 0,-0.686708 0.20428,-1.107499 0.743616,-1.531738 0.738877,-0.5812 0.89452,-0.584928 24.425051,-0.584928 h 23.68143 l 0.69273,0.692728 c 0.381,0.381 0.69273,1.021772 0.69273,1.423938 0,0.402167 -0.31173,1.042938 -0.69273,1.423938 l -0.69273,0.692729 h -23.68143 c -23.530531,0 -23.686174,-0.0037 -24.425051,-0.584928 z M 81.521217,67.449096 c -0.760713,-0.760713 -0.745575,-2.2886 0.02963,-2.990148 0.530347,-0.479958 1.062762,-0.53763 4.963324,-0.53763 h 4.369251 l 0.701746,0.815828 c 0.809636,0.941259 0.724348,1.975409 -0.229475,2.782505 -0.500713,0.423689 -1.200994,0.493889 -4.926852,0.493889 -3.966884,0 -4.392083,-0.0489 -4.907624,-0.564444 z m 16.982527,-0.08875 c -0.757383,-0.806199 -0.786441,-1.893099 -0.07413,-2.772768 l 0.539507,-0.666265 h 23.419749 c 22.63434,0 23.43967,0.01803 24.01382,0.53763 0.77521,0.701548 0.79035,2.229435 0.0296,2.990148 -0.55535,0.555356 -0.94074,0.564444 -23.93969,0.564444 H 99.117385 Z"
        id="path119"
        style="fill:#767676;fill-opacity:1;stroke-width:0.282222"/>
      <path
        d="m 54.040552,156.03575 c -2.047324,-0.48077 -4.913329,-2.22583 -6.538445,-3.98116 -2.359025,-2.54802 -3.532706,-5.26321 -3.941283,-9.11775 -0.156034,-1.47203 -0.09937,-1.80278 0.422547,-2.46629 l 0.602748,-0.76627 11.482549,-0.0737 11.48255,-0.0737 0.145292,-43.179998 c 0.131385,-39.04689 0.1895,-43.30156 0.60715,-44.449998 1.604273,-4.411369 5.065092,-7.755464 9.38634,-9.069765 1.637275,-0.497975 3.78872,-0.521575 47.7361,-0.523634 41.28235,-0.0019 46.17941,0.04415 47.55444,0.447554 4.75235,1.394212 8.46841,5.343373 9.68523,10.292765 0.64379,2.618576 0.60271,4.632477 -0.109,5.344191 -0.54561,0.545609 -0.94074,0.564444 -11.84146,0.564444 h -11.27702 l -0.0824,8.437479 c -0.0765,7.835632 -0.12077,8.479821 -0.62006,9.031111 -0.73211,0.808375 -2.22067,0.790106 -2.99096,-0.03671 -0.57755,-0.619923 -0.58589,-0.81692 -0.50488,-11.923888 0.0931,-12.761229 0.0942,-12.768487 2.46353,-16.239606 0.63064,-0.923879 1.14661,-1.747697 1.14661,-1.830706 0,-0.08301 -17.81175,-0.116195 -39.58166,-0.07375 l -39.581667,0.07718 -1.635989,0.660221 c -1.973938,0.796602 -4.328778,2.999612 -5.24598,4.907741 -0.352843,0.734046 -0.759802,2.194546 -0.904353,3.245555 -0.155219,1.12857 -0.232746,18.780508 -0.18936,43.115369 l 0.07346,41.204445 31.072369,0.0718 c 35.87599,0.0829 31.79937,-0.35516 32.46641,3.48863 0.9874,5.68985 4.64244,9.05285 9.83899,9.05285 3.98795,0 7.40333,-2.17626 9.06663,-5.77718 l 0.81115,-1.75609 0.14111,-14.45419 c 0.12809,-13.12044 0.18545,-14.49848 0.62156,-14.93425 0.67863,-0.6781 2.10375,-0.60839 2.85135,0.13945 l 0.61931,0.61953 v 14.17362 c 0,15.40788 0.001,15.39215 -1.63199,18.67959 -1.01676,2.0464 -3.78896,4.89359 -5.71372,5.86829 -3.4131,1.72839 -0.0574,1.62289 -50.63162,1.59183 -26.60612,-0.0163 -46.625655,-0.13707 -47.255548,-0.28499 z m 80.820658,-3.74151 c 0,-0.0571 -0.56773,-0.95037 -1.26162,-1.98515 -1.11422,-1.66159 -2.40726,-4.87595 -2.40726,-5.98417 0,-0.33488 -6.21081,-0.39361 -41.62778,-0.39361 -26.482084,0 -41.627776,0.0988 -41.627776,0.27164 0,0.1494 0.260827,0.96876 0.579615,1.82079 1.12481,3.00633 4.190199,5.53027 7.354965,6.05585 1.4095,0.23408 78.989856,0.4449 78.989856,0.21465 z M 178.5977,53.874678 c -1.77406,-6.185772 -8.14655,-9.139072 -13.81107,-6.400668 -2.36934,1.145414 -4.56834,3.895967 -5.19577,6.498975 l -0.18707,0.776111 h 9.72234 9.72235 z M 119.92392,133.0277 c -0.32171,-0.40899 -0.58493,-0.90542 -0.58493,-1.10319 0,-0.78431 4.8209,-17.14224 6.0516,-20.53385 3.35792,-9.25389 6.30237,-14.055658 11.20796,-18.277767 7.77589,-6.692502 19.24575,-11.194522 33.39933,-13.109524 3.54433,-0.479551 15.35846,-0.909483 16.57836,-0.603306 0.81466,0.204464 1.4873,1.542316 1.21183,2.410251 -0.10019,0.315668 -1.60397,1.812555 -3.34173,3.326421 -1.73777,1.513862 -6.14407,5.750094 -9.79179,9.413846 -5.06627,5.088531 -7.53182,7.330399 -10.44223,9.494879 -5.83425,4.33896 -11.74934,7.9277 -15.52222,9.41747 -0.85372,0.3371 -5.02916,1.61525 -9.27876,2.84033 -6.26194,1.80521 -12.19399,3.81315 -12.59939,4.26477 -0.0395,0.044 -0.80996,2.73039 -1.71219,5.96981 -0.90222,3.23943 -1.87821,6.19218 -2.16885,6.56167 -0.7523,0.95639 -2.22589,0.9212 -3.00699,-0.0718 z m 18.96614,-20.88619 c 3.60497,-1.03084 7.51262,-2.27806 8.68367,-2.7716 3.8184,-1.60928 10.06698,-5.5155 15.5097,-9.695698 2.07165,-1.591092 15.81754,-15.009562 15.37581,-15.009562 -0.62092,0 -6.33983,2.398576 -9.73136,4.081441 -9.69724,4.811748 -20.24903,11.592109 -29.58878,19.013129 -3.74616,2.97656 -7.395,6.22055 -7.02237,6.24322 0.12037,0.007 3.16837,-0.83009 6.77333,-1.86093 z m -5.72218,-4.88924 c 8.02402,-6.93875 20.92488,-15.657524 30.5609,-20.653955 1.82955,-0.94865 3.27278,-1.778502 3.20717,-1.84411 -0.24891,-0.248917 -8.09902,1.677952 -11.61654,2.851367 -9.06174,3.022922 -15.86008,7.446165 -19.9757,12.996898 -1.46828,1.98027 -3.68757,5.94773 -4.45268,7.96012 -0.33475,0.88046 -0.10107,0.74598 2.27685,-1.31032 z M 81.521217,132.3602 c -0.760524,-0.76052 -0.745558,-2.28852 0.02929,-2.99014 0.559187,-0.50635 1.244803,-0.54278 11.782777,-0.62598 12.026276,-0.095 12.978026,-0.009 13.541446,1.22792 0.45674,1.00243 0.41589,1.35458 -0.25622,2.20903 l -0.58493,0.74362 H 94.059621 c -11.597664,0 -11.991697,-0.0177 -12.538404,-0.56445 z m 0.987778,-21.08292 c -1.545974,-0.38897 -2.105034,-2.35315 -0.987778,-3.47041 0.551468,-0.55147 0.94074,-0.56444 16.933332,-0.56444 15.992591,0 16.381861,0.013 16.933331,0.56444 0.7606,0.7606 0.74557,2.28855 -0.0294,2.99015 -0.56794,0.51415 -1.28573,0.53948 -16.439442,0.57995 -8.715064,0.0233 -16.099569,-0.0216 -16.410013,-0.0997 z M 81.706332,89.164395 c -1.034356,-0.813624 -1.037152,-2.257001 -0.006,-3.06815 0.738889,-0.5812 0.894532,-0.584928 24.425058,-0.584928 h 23.68143 l 0.72427,0.724264 c 0.58641,0.586418 0.6902,0.894554 0.54531,1.618999 -0.37383,1.869169 1.36539,1.741376 -24.82679,1.824188 -23.76087,0.07513 -23.794802,0.07442 -24.543323,-0.514373 z M 81.521217,67.449096 c -0.760547,-0.760547 -0.745561,-2.288529 0.02933,-2.990148 0.529695,-0.479608 1.061822,-0.53763 4.930631,-0.53763 4.088525,0 4.372342,0.03546 4.956596,0.61932 0.837045,0.836481 0.825914,2.265022 -0.023,2.952436 -0.562418,0.455417 -1.185587,0.520466 -4.985929,0.520466 -3.966884,0 -4.392083,-0.0489 -4.907624,-0.564444 z m 16.982527,-0.08875 c -1.223803,-1.302679 -0.48656,-3.090505 1.41673,-3.435598 0.513126,-0.09304 11.047936,-0.131871 23.410666,-0.08629 21.6451,0.07979 22.49971,0.102774 23.07167,0.62049 0.77508,0.701577 0.79017,2.229497 0.0295,2.990148 -0.55535,0.555356 -0.94074,0.564444 -23.93969,0.564444 H 99.117385 Z"
        id="path117"
        style="fill:#606060;fill-opacity:1;stroke-width:0.282222"/>
      <path
        d="m 53.863441,155.94467 c -5.799526,-1.61631 -9.995874,-7.05731 -10.22951,-13.26363 -0.118861,-3.15741 -0.858797,-2.98306 12.659664,-2.98306 H 67.692329 V 96.99254 c 0,-38.461957 0.04522,-42.857758 0.455065,-44.238331 0.739087,-2.48962 1.988127,-4.669367 3.598315,-6.279555 1.770885,-1.770887 3.4994,-2.796666 6.029341,-3.578085 1.799059,-0.555672 2.60562,-0.56525 47.60215,-0.56525 50.20415,0 47.33373,-0.09579 50.48905,1.68496 3.25523,1.837138 5.73459,5.160717 6.71786,9.005299 0.74936,2.929968 0.71381,4.567563 -0.11609,5.347213 -0.64796,0.608725 -0.74272,0.613638 -11.83787,0.613638 h -11.18468 l -0.086,8.491957 -0.086,8.491956 -0.66626,0.539154 c -0.90236,0.730208 -2.06342,0.683127 -2.81232,-0.114035 -0.6075,-0.646655 -0.61364,-0.758977 -0.61364,-11.229593 0,-11.452501 0.0898,-12.317294 1.58675,-15.285846 0.40963,-0.812309 1.12221,-1.956152 1.58352,-2.541874 l 0.83875,-1.064948 -39.75173,0.07717 -39.751727,0.07717 -1.691254,0.680897 c -2.286759,0.920648 -4.609425,3.243314 -5.53007,5.530072 l -0.680898,1.691253 v 42.615553 42.615555 l 31.095489,0.0718 31.09548,0.0718 0.55062,0.7 c 0.34234,0.43521 0.62384,1.38373 0.74419,2.5076 0.39661,3.7035 2.74091,7.1067 5.85955,8.50626 1.45498,0.65296 2.14232,0.78611 4.05789,0.78611 1.98179,0 2.55906,-0.12001 4.10371,-0.85315 2.88726,-1.37038 4.69587,-3.51544 5.47002,-6.4876 0.34343,-1.31852 0.41971,-4.08839 0.41971,-15.23987 0,-13.25219 0.0156,-13.64407 0.56445,-14.19293 0.85761,-0.85761 2.06716,-0.84553 2.96333,0.0296 0.54978,0.53687 0.56444,0.92307 0.56444,14.8658 0,13.29612 -0.0379,14.42504 -0.53291,15.86682 -1.73878,5.06457 -5.04024,8.34369 -9.70202,9.63636 -1.80556,0.50067 -3.9068,0.52253 -47.89673,0.4984 -35.961041,-0.0197 -46.285672,-0.10252 -47.278329,-0.37918 z m 80.997769,-3.65043 c 0,-0.0571 -0.54464,-0.91595 -1.21032,-1.90865 -0.66567,-0.99269 -1.43864,-2.56526 -1.71769,-3.49459 -0.27906,-0.92933 -0.60225,-2.00719 -0.7182,-2.39524 l -0.21081,-0.70556 -41.565294,-0.0715 -41.565291,-0.0715 0.196258,1.04614 c 0.649912,3.46433 4.143653,6.80934 7.749833,7.41993 1.24925,0.21152 79.041514,0.38961 79.041514,0.18095 z M 178.6953,54.819652 c 0.26272,-0.452273 -0.68594,-2.841558 -1.70296,-4.289042 -3.33829,-4.751292 -9.90717,-5.486799 -14.33987,-1.605613 -1.44134,1.262009 -2.79539,3.508778 -3.1273,5.189099 l -0.18118,0.917222 h 9.61418 c 5.28779,0 9.66951,-0.09525 9.73713,-0.211666 z M 119.92392,133.0277 c -0.32171,-0.40899 -0.58493,-0.87631 -0.58493,-1.03849 0,-0.52841 3.39288,-12.36138 4.7894,-16.70345 3.65311,-11.35829 6.92323,-17.255529 12.09453,-21.810948 9.98307,-8.794117 26.12916,-13.909838 44.18411,-13.99928 l 6.45803,-0.03199 0.56373,0.751544 c 0.9163,1.22159 0.50202,1.9075 -2.96593,4.91063 -1.74685,1.512711 -5.97009,5.570188 -9.38498,9.01661 -6.50064,6.560674 -9.61366,9.215944 -15.24,12.999104 -7.18132,4.82872 -10.50247,6.35128 -19.33222,8.86273 -7.40718,2.10683 -9.16668,2.66417 -11.74013,3.71882 l -2.00345,0.82105 -1.65852,5.96093 c -0.91219,3.27852 -1.8931,6.25916 -2.1798,6.62365 -0.74515,0.94729 -2.22239,0.90745 -2.99984,-0.0809 z m 19.39534,-21.00178 c 7.83675,-2.23666 10.52697,-3.39619 16.00306,-6.89761 6.47274,-4.13866 9.5398,-6.673027 16.62416,-13.736843 3.71051,-3.699749 6.63119,-6.726817 6.49039,-6.726817 -0.1408,0 -1.52567,0.492599 -3.07749,1.094664 -11.34168,4.400259 -28.23411,14.984356 -39.93372,25.020826 -2.67328,2.29326 -3.6248,3.23562 -3.26707,3.23562 0.10379,0 3.32609,-0.89543 7.16067,-1.98984 z m -6.07538,-4.81565 c 7.89098,-6.82031 22.30331,-16.499768 31.28106,-21.00866 1.41265,-0.709479 2.51462,-1.343798 2.44882,-1.409599 -0.15506,-0.155058 -3.86311,0.556224 -6.77324,1.299247 -6.21829,1.587669 -12.86861,4.422098 -17.29455,7.371094 -2.889,1.92493 -6.97534,5.989345 -8.7386,8.691698 -1.14188,1.75004 -3.53949,6.44294 -3.53949,6.92794 0,0.32586 0.42644,0.0207 2.616,-1.87172 z m -51.669447,25.13894 c -0.779188,-0.72592 -0.804441,-2.06 -0.05322,-2.81123 0.546707,-0.54671 0.94074,-0.56444 12.538404,-0.56444 h 11.973963 l 0.60088,0.76389 c 0.70286,0.89354 0.57914,1.93167 -0.32099,2.69333 -0.53552,0.45314 -1.5546,0.49389 -12.352529,0.49389 -11.4537,0 -11.78539,-0.0154 -12.386512,-0.57544 z m -0.05322,-21.72012 c -0.751225,-0.75122 -0.725972,-2.0853 0.05322,-2.81122 0.606778,-0.5653 0.904195,-0.57544 16.880116,-0.57544 15.975921,0 16.273341,0.0101 16.880121,0.57544 0.77918,0.72592 0.80444,2.06 0.0532,2.81122 -0.55147,0.55147 -0.94074,0.56445 -16.933331,0.56445 -15.992592,0 -16.381864,-0.013 -16.933332,-0.56445 z M 82.36788,89.54443 c -1.566633,-0.576038 -1.930327,-2.454842 -0.667495,-3.448185 0.738696,-0.581059 0.898177,-0.584928 24.111625,-0.584928 14.61119,0 23.64119,0.103863 24.097,0.277162 1.52272,0.578936 1.51036,2.940498 -0.019,3.637339 -0.50324,0.229294 -7.21491,0.312575 -23.89925,0.296551 C 93.230992,89.710114 82.600717,89.630042 82.367884,89.54443 Z M 81.574433,67.4381 c -0.766174,-0.713799 -0.800303,-1.958695 -0.07815,-2.850517 0.525159,-0.648547 0.656299,-0.666265 4.931048,-0.666265 4.019773,0 4.438173,0.04778 4.9424,0.564444 0.874792,0.896364 0.886736,2.105861 0.02926,2.963334 -0.515292,0.515292 -0.94074,0.564444 -4.885673,0.564444 -3.958646,0 -4.373052,-0.04828 -4.938888,-0.57544 z m 16.929311,-0.07775 c -1.223803,-1.302679 -0.48656,-3.090505 1.41673,-3.435598 0.513126,-0.09304 11.072476,-0.131871 23.465206,-0.08629 l 22.53224,0.08286 0.53942,0.666265 c 0.73047,0.90223 0.6835,2.063329 -0.11376,2.812318 l -0.65319,0.613639 h -23.2865 -23.286505 z"
        id="path115"
        style="fill:#494949;fill-opacity:1;stroke-width:0.282222"/>
      <path
        d="m 53.89297,155.90247 c -5.706206,-1.53449 -10.014582,-7.07825 -10.254845,-13.19534 -0.125217,-3.18802 -0.877464,-3.00915 12.65547,-3.00915 H 67.692329 V 97.141722 c 0,-46.607942 -0.09409,-43.931766 1.667187,-47.420831 1.057936,-2.095759 3.626627,-4.664449 5.722384,-5.722384 3.498341,-1.765958 0.512913,-1.667508 50.45472,-1.663838 37.18889,0.0027 45.85018,0.07299 47.00126,0.381237 5.89701,1.579185 9.91926,6.578811 10.4755,13.020968 0.15858,1.836637 0.12268,2.019977 -0.51049,2.607268 -0.67866,0.629491 -0.72068,0.631971 -11.95526,0.705555 l -11.2742,0.07384 -0.14111,8.560302 c -0.13285,8.05929 -0.17317,8.58373 -0.68894,8.960555 -0.88704,0.64809 -2.01798,0.494756 -2.69452,-0.365328 -0.59548,-0.757033 -0.60117,-0.890202 -0.50961,-11.923888 0.0907,-10.931764 0.10601,-11.191781 0.75284,-12.807059 0.36312,-0.906813 1.21738,-2.462563 1.89835,-3.457222 l 1.23813,-1.80847 h -38.75184 c -26.750094,0 -39.266973,0.09523 -40.41511,0.307471 -2.23643,0.413426 -4.008695,1.357284 -5.416685,2.88477 -1.490173,1.616648 -2.207113,3.032942 -2.593582,5.123545 -0.213502,1.154939 -0.307913,14.456792 -0.307913,43.382711 v 41.717056 h 31.05727 31.05727 l 0.64634,0.64633 c 0.47196,0.47197 0.69488,1.11084 0.82629,2.36815 0.41968,4.01525 2.5839,7.20977 5.89834,8.70632 1.47221,0.66475 2.16253,0.80243 4.04016,0.8058 1.95277,0.004 2.5162,-0.11593 4.09222,-0.86751 2.03774,-0.97175 3.21928,-1.97093 4.34854,-3.67735 1.49804,-2.2637 1.56436,-3.01083 1.56799,-17.6664 0.004,-15.31186 -0.0211,-15.13585 2.14683,-15.14657 1.86804,-0.009 1.80763,-0.52517 1.80763,15.43984 0,13.6368 -0.0305,14.51068 -0.56706,16.24787 -1.37806,4.46163 -4.97614,7.95026 -9.54822,9.25775 -1.81184,0.51814 -3.47796,0.53623 -47.73937,0.51831 -39.146913,-0.0159 -46.084959,-0.0785 -47.3847,-0.42805 z m 80.96824,-3.64879 c 0,-0.0794 -0.49897,-0.8753 -1.10882,-1.76873 -1.01954,-1.49363 -2.56006,-5.33987 -2.56006,-6.39173 0,-0.40202 -3.9472,-0.44413 -41.62778,-0.44413 H 47.936774 l 0.0028,0.635 c 0.0047,1.08707 1.320369,3.52845 2.691269,4.99406 1.425724,1.52421 3.033878,2.43655 4.963153,2.8157 1.29094,0.25371 79.267244,0.41093 79.267244,0.15983 z m 43.90556,-97.998473 c -0.39459,-1.679929 -1.9166,-4.313355 -3.06574,-5.304458 -4.28623,-3.696746 -10.16562,-3.36177 -13.90018,0.791958 -1.11409,1.239135 -2.3863,3.838614 -2.3863,4.875865 0,0.35423 1.38474,0.412746 9.76726,0.412746 h 9.76726 z m -58.38509,79.202523 c -1.16209,-0.67604 -1.10125,-1.37066 0.68269,-7.79394 3.80702,-13.70763 6.74845,-21.47662 9.8761,-26.085104 6.20837,-9.147816 17.62405,-15.495924 33.37366,-18.558662 5.95215,-1.157481 10.1201,-1.545006 16.79896,-1.561916 l 5.753,-0.01456 0.56321,0.751544 c 0.90199,1.203604 0.49387,1.907675 -2.68275,4.628162 -1.59244,1.363771 -5.81634,5.413168 -9.38645,8.998663 -3.57011,3.585492 -7.73118,7.509173 -9.24682,8.719293 -4.29662,3.43051 -10.37751,7.35418 -14.72455,9.50095 -3.4305,1.69415 -4.98273,2.2478 -11.44752,4.08317 -6.52419,1.85223 -11.81545,3.62412 -12.8918,4.31708 -0.18311,0.11789 -1.09636,2.92459 -2.02946,6.23711 -0.93309,3.31252 -1.91421,6.2633 -2.18026,6.55729 -0.52922,0.58477 -1.65814,0.68624 -2.45801,0.22093 z m 28.12328,-24.47088 c 4.67627,-2.19428 11.55903,-6.70583 16.23213,-10.639915 3.02062,-2.542932 14.12379,-13.682285 13.63785,-13.682285 -0.58612,0 -5.05129,1.815409 -8.62833,3.508028 -8.87684,4.200429 -21.31835,12.122792 -30.44622,19.387202 -3.59667,2.86241 -7.4957,6.2271 -7.52438,6.49322 -0.0406,0.37621 14.54185,-4.03998 16.72895,-5.06625 z m -15.65707,-1.40378 c 7.85283,-6.85748 20.78179,-15.632362 30.9411,-20.999726 3.55064,-1.875872 3.62341,-1.932466 2.25778,-1.755871 -2.17255,0.280941 -9.59798,2.225725 -12.27667,3.215363 -10.85636,4.01088 -17.79135,9.734538 -21.75745,17.957104 -1.8978,3.93453 -1.88508,3.95864 0.83524,1.58313 z m -51.277479,24.68839 c -0.76682,-0.81624 -0.788026,-1.99465 -0.04919,-2.73348 0.546673,-0.54667 0.94074,-0.56444 12.515147,-0.56444 11.617822,0 11.965022,0.0158 12.464812,0.56808 0.72825,0.80471 0.66464,2.2202 -0.12864,2.86256 -0.60168,0.48722 -1.39485,0.52047 -12.415612,0.52047 H 82.184052 Z m -0.04919,-21.64237 c -0.761342,-0.76134 -0.721318,-2.01201 0.08875,-2.77302 l 0.653189,-0.61364 h 16.23094 16.23095 l 0.61364,0.65319 c 0.76682,0.81624 0.78802,1.99464 0.0492,2.73347 -0.55147,0.55147 -0.94074,0.56445 -16.933331,0.56445 -15.992592,0 -16.381864,-0.013 -16.933332,-0.56445 z m 0.846667,-21.08466 c -1.462846,-0.537876 -1.908342,-2.366693 -0.817121,-3.354372 0.572643,-0.518309 1.437329,-0.540342 24.059443,-0.613096 16.38863,-0.05271 23.68847,0.01688 24.20495,0.230742 1.59044,0.658562 1.63692,2.906369 0.0748,3.618114 -0.50324,0.229294 -7.21492,0.312575 -23.89926,0.296551 C 93.230992,89.710114 82.600717,89.630042 82.367884,89.54443 Z M 81.570411,67.360351 c -0.76682,-0.816243 -0.788026,-1.994645 -0.04919,-2.733477 0.516946,-0.516947 0.94074,-0.564445 5.036258,-0.564445 3.973802,0 4.523833,0.05748 4.938889,0.516111 0.642634,0.710102 0.592759,2.180426 -0.09737,2.870556 -0.515338,0.515337 -0.94074,0.564444 -4.889694,0.564444 -4.156227,0 -4.349228,-0.02551 -4.938889,-0.653189 z m 17.012422,-0.03954 c -0.843336,-0.843334 -0.886496,-1.815076 -0.117288,-2.640723 l 0.575437,-0.61766 h 23.413448 c 23.03715,0 23.42252,0.0091 23.97789,0.564445 0.76135,0.761342 0.72132,2.012012 -0.0887,2.773027 l -0.65319,0.613639 H 122.48297 99.275559 Z"
        id="path113"
        style="fill:#000000;fill-opacity:1;stroke-width:0.282222"/>
    </g>
  </g>
</svg>
