<?xml version="1.0" encoding="iso-8859-1"?>
<!-- Generator: Adobe Illustrator 16.0.0, SVG Export Plug-In . SVG Version: 6.00 Build 0)  -->
<!DOCTYPE svg PUBLIC "-//W3C//DTD SVG 1.1//EN" "http://www.w3.org/Graphics/SVG/1.1/DTD/svg11.dtd">
<svg version="1.1" id="Capa_1" xmlns="http://www.w3.org/2000/svg" xmlns:xlink="http://www.w3.org/1999/xlink" x="0px" y="0px"
	 width="56.508px" height="56.508px" viewBox="0 0 56.508 56.508" style="enable-background:new 0 0 56.508 56.508;"
	 xml:space="preserve">
<g>
	<g>
		<path d="M45.629,39.068V26.521l10.603-5.254c0.183-0.092,0.291-0.283,0.274-0.487c-0.016-0.204-0.151-0.377-0.348-0.438
			l-27.756-8.754c-0.098-0.03-0.201-0.03-0.301,0L0.35,20.341c-0.195,0.062-0.333,0.235-0.348,0.438s0.094,0.396,0.276,0.487
			l5.787,2.867v11.5c-1.211,0.555-1.77,3.387-1.77,6.041c0,0.274,0.224,0.5,0.5,0.5s0.5-0.226,0.5-0.5
			c0-2.293,0.403-3.842,0.77-4.601v4.685c0,0.275,0.224,0.5,0.5,0.5s0.5-0.225,0.5-0.5v-4.412c0.328,0.834,0.647,2.291,0.647,4.328
			c0,0.277,0.224,0.5,0.5,0.5s0.5-0.223,0.5-0.5c0-2.564-0.52-5.297-1.647-5.979V24.629l3.814,1.891v12.549
			c0,3.814,8.952,5.875,17.375,5.875C36.677,44.943,45.629,42.885,45.629,39.068z M28.254,12.587l26.417,8.333l-9.69,4.803
			c-0.045,0.015-0.084,0.035-0.123,0.062l-16.603,8.229L11.65,25.785c-0.038-0.025-0.078-0.047-0.122-0.062l-3.435-1.701
			l18.886-3.838c0.271-0.056,0.445-0.319,0.391-0.59c-0.056-0.271-0.32-0.445-0.59-0.39L6.634,23.299l-4.799-2.378L28.254,12.587z
			 M28.254,43.943c-9.65,0-16.375-2.568-16.375-4.875V27.015l16.153,8.006c0.07,0.034,0.146,0.053,0.223,0.053
			c0.078,0,0.152-0.019,0.223-0.053l16.15-8.006v12.055C44.629,41.375,37.902,43.943,28.254,43.943z"/>
	</g>
</g>
<g>
</g>
<g>
</g>
<g>
</g>
<g>
</g>
<g>
</g>
<g>
</g>
<g>
</g>
<g>
</g>
<g>
</g>
<g>
</g>
<g>
</g>
<g>
</g>
<g>
</g>
<g>
</g>
<g>
</g>
</svg>
