<svg viewBox="0 0 600 600" xmlns="http://www.w3.org/2000/svg">
  <defs>
    <style>
      .cls-1 {
        fill: #000000;
      }
    </style>
  </defs>
  <path class="cls-1"
        d="M299.86,259a38.43,38.43,0,1,1-38.42,38.42A38.47,38.47,0,0,1,299.86,259m0-40.21a78.63,78.63,0,1,0,78.63,78.63,78.63,78.63,0,0,0-78.63-78.63Z"/>
  <path class="cls-1"
        d="M88.12,259A38.43,38.43,0,1,1,49.69,297.4,38.47,38.47,0,0,1,88.12,259m0-40.21a78.63,78.63,0,1,0,78.63,78.63,78.63,78.63,0,0,0-78.63-78.63Z"/>
  <path class="cls-1"
        d="M512.07,259a38.43,38.43,0,1,1-38.43,38.42A38.47,38.47,0,0,1,512.07,259m0-40.21A78.63,78.63,0,1,0,590.7,297.4a78.64,78.64,0,0,0-78.63-78.63Z"/>
</svg>
